<?xml version="1.0" encoding="UTF-8" standalone="no"?>
<!-- Created with Inkscape (http://www.inkscape.org/) -->

<svg
   xmlns:dc="http://purl.org/dc/elements/1.1/"
   xmlns:cc="http://creativecommons.org/ns#"
   xmlns:rdf="http://www.w3.org/1999/02/22-rdf-syntax-ns#"
   xmlns:svg="http://www.w3.org/2000/svg"
   xmlns="http://www.w3.org/2000/svg"
   xmlns:sodipodi="http://sodipodi.sourceforge.net/DTD/sodipodi-0.dtd"
   xmlns:inkscape="http://www.inkscape.org/namespaces/inkscape"
   width="744.09448819"
   height="1052.3622047"
   id="svg3515"
   version="1.1"
   inkscape:version="0.48.5 r10040"
   sodipodi:docname="victron.svg">
  <defs
     id="defs3517" />
  <sodipodi:namedview
     id="base"
     pagecolor="#ffffff"
     bordercolor="#666666"
     borderopacity="1.0"
     inkscape:pageopacity="0.0"
     inkscape:pageshadow="2"
     inkscape:zoom="0.95673077"
     inkscape:cx="286.55721"
     inkscape:cy="463.34148"
     inkscape:document-units="px"
     inkscape:current-layer="layer1"
     showgrid="false"
     inkscape:window-width="958"
     inkscape:window-height="1023"
     inkscape:window-x="0"
     inkscape:window-y="31"
     inkscape:window-maximized="0" />
  <metadata
     id="metadata3520">
    <rdf:RDF>
      <cc:Work
         rdf:about="">
        <dc:format>image/svg+xml</dc:format>
        <dc:type
           rdf:resource="http://purl.org/dc/dcmitype/StillImage" />
        <dc:title></dc:title>
      </cc:Work>
    </rdf:RDF>
  </metadata>
  <g
     inkscape:label="Layer 1"
     inkscape:groupmode="layer"
     id="layer1">
    <rect
       style="fill:#0095ea;fill-opacity:1"
       id="rect3577"
       width="445.26633"
       height="679.39697"
       x="140.0603"
       y="193.18631"
       ry="20" />
    <rect
       style="fill:#ff6700;fill-opacity:1"
       id="rect3590"
       width="445.66916"
       height="42.867004"
       x="139.68735"
       y="316.23206" />
    <rect
       style="fill:#000000;fill-opacity:1"
       id="rect3592"
       width="42.854271"
       height="40.763821"
       x="154.69347"
       y="823.45764"
       ry="25" />
    <rect
       style="fill:#000000;fill-opacity:1"
       id="rect3594"
       width="2.090452"
       height="18.81407"
       x="185.00502"
       y="830.77423"
       ry="6.2713566" />
    <rect
       style="fill:#000000;fill-opacity:1"
       id="rect3592-4"
       width="42.854271"
       height="40.763821"
       x="200.16081"
       y="823.88977"
       ry="25" />
    <rect
       style="fill:#000000;fill-opacity:1"
       id="rect3592-5"
       width="42.854271"
       height="40.763821"
       x="245.10553"
       y="823.88983"
       ry="25" />
    <text
       xml:space="preserve"
       style="font-size:20px;font-style:normal;font-weight:normal;line-height:125%;letter-spacing:0px;word-spacing:0px;fill:#ffffff;fill-opacity:1;stroke:none;font-family:Sans"
       x="169.59409"
       y="380.14316"
       id="text3640"
       sodipodi:linespacing="125%"><tspan
         sodipodi:role="line"
         id="tspan3642"
         x="169.59409"
         y="380.14316">victron energy</tspan></text>
    <path
       style="fill:#ffffff;fill-opacity:1"
       id="path3646"
       d="m 144.72982,374.25314 c -0.15721,-0.45832 -0.23035,-0.93741 -0.28646,-1.41683 -0.0233,-0.41641 -0.06,-0.82724 -0.12991,-1.23835 -0.0625,-0.37829 -0.10411,-0.76086 -0.0882,-1.1443 0.033,-0.40033 0.18536,-0.77382 0.35126,-1.13502 0.15263,-0.30788 0.31268,-0.60562 0.51252,-0.88541 0.18531,-0.26668 0.4201,-0.46998 0.67425,-0.66612 1.03936,-0.78825 1.95579,-1.55185 3.2338,-1.68223 0.3921,-0.0346 0.77892,0.0644 1.14605,0.19194 0.29204,0.15341 0.57209,0.32394 0.85978,0.48487 0.36211,0.23289 0.72514,0.46187 1.06505,0.72695 0.36196,0.30312 0.65898,0.65597 0.90399,1.0579 0.18377,0.2879 0.40223,0.55035 0.58257,0.84053 0.17097,0.33426 0.31428,0.68139 0.47739,1.01939 0.16096,0.36855 0.31048,0.74203 0.46807,1.1122 0.19116,0.29928 0.30931,0.63185 0.42906,0.96367 0.12627,0.40339 0.22951,0.81293 0.35351,1.21696 0.0952,0.39727 0.26311,0.77013 0.39862,1.15386 0.17194,0.40612 0.34812,0.81176 0.53697,1.21076 0.1704,0.39063 0.37525,0.76303 0.5683,1.14237 0.15935,0.34757 0.38114,0.65997 0.54048,1.00769 0.12071,0.31019 0.3189,0.54071 0.58287,0.73279 0.34692,0.30469 0.59559,0.29659 1.03218,0.28735 0.1873,0.004 0.37699,-0.0369 0.55238,-0.10271 0.0541,-0.0203 0.20638,-0.10332 0.15625,-0.0747 -2.62782,1.50141 -2.89297,1.66543 -2.05985,1.15687 0.30463,-0.18467 0.49279,-0.49171 0.68914,-0.77891 0.166,-0.29038 0.4224,-0.50459 0.65887,-0.73385 0.22298,-0.17713 0.37491,-0.42313 0.54024,-0.6514 0.2345,-0.28128 0.4746,-0.55771 0.71498,-0.83419 0.21551,-0.26581 0.45371,-0.51368 0.65157,-0.79321 0.19971,-0.26667 0.34977,-0.56688 0.51935,-0.8534 0.21512,-0.32232 0.44451,-0.62842 0.61253,-0.97868 0.16158,-0.35508 0.25776,-0.73453 0.37796,-1.10481 0.088,-0.38619 0.17067,-0.77529 0.24081,-1.16557 0.0622,-0.36873 0.0748,-0.74285 0.0826,-1.1159 -0.003,-0.29415 0.0202,-0.58964 -0.013,-0.88239 0,0 2.4119,-1.27079 2.4119,-1.27079 l 0,0 c 0.048,0.30534 0.0244,0.61401 0.0269,0.92246 -0.005,0.38537 -0.0135,0.77178 -0.0678,1.15399 -0.0633,0.40036 -0.17185,0.79052 -0.21831,1.19344 -0.11013,0.38647 -0.25253,0.76308 -0.3754,1.14556 -0.0607,0.13483 -0.10675,0.27629 -0.17279,0.4086 -0.10921,0.21877 -0.30242,0.38408 -0.41041,0.60424 -0.20612,0.26686 -0.33784,0.57899 -0.50725,0.86823 -0.24274,0.28303 0.0422,-0.0628 -0.19186,0.26987 -0.13652,0.19401 -0.34297,0.33039 -0.45519,0.54518 -0.25308,0.26149 -0.46055,0.55774 -0.72455,0.80856 -0.1786,0.23143 -0.32569,0.48129 -0.50943,0.70617 -0.2593,0.18848 -0.49081,0.42694 -0.70568,0.66317 -0.18318,0.31207 -0.38501,0.62171 -0.63521,0.88376 -1.04198,0.71338 -2.09113,1.63303 -3.38596,1.60168 -0.43458,-0.0214 -0.80457,-0.12916 -1.13904,-0.42145 -0.29225,-0.22531 -0.50236,-0.51346 -0.64948,-0.85317 -0.15171,-0.34552 -0.37682,-0.65167 -0.52581,-0.99895 -0.19895,-0.37969 -0.39745,-0.75947 -0.5671,-1.15343 -0.19418,-0.40729 -0.37698,-0.82081 -0.56083,-1.23239 -0.12987,-0.38946 -0.30904,-0.76236 -0.39906,-1.16485 -0.12001,-0.39988 -0.22862,-0.80226 -0.35595,-1.19987 -0.1175,-0.32746 -0.23605,-0.65431 -0.41633,-0.95387 -0.15354,-0.36635 -0.30806,-0.73216 -0.46058,-1.09875 -0.1633,-0.32728 -0.30567,-0.66426 -0.4718,-0.99019 -0.18282,-0.28925 -0.40168,-0.55431 -0.57374,-0.8509 -0.22436,-0.37587 -0.50332,-0.69883 -0.84651,-0.97282 -0.3386,-0.24995 -0.69538,-0.47426 -1.05679,-0.68961 -0.27173,-0.15702 -0.54858,-0.30595 -0.83334,-0.43765 -0.34537,-0.10785 -0.70723,-0.15783 -1.06669,-0.0919 -0.1304,0.0263 -0.23115,0.04 -0.35476,0.0908 -0.0506,0.0208 -0.1923,0.10386 -0.14522,0.0761 4.19884,-2.4746 2.64514,-1.71682 1.9828,-1.1118 -0.26897,0.15813 -0.52967,0.33267 -0.70301,0.59925 -0.2461,0.23682 -0.39671,0.53099 -0.54258,0.83613 -0.19974,0.30922 -0.33113,0.6735 -0.39884,1.03434 -0.0533,0.35948 0.0102,0.72557 0.0542,1.08373 0.0687,0.41885 0.12526,0.83354 0.12549,1.25939 0.0418,0.4535 0.0953,0.91347 0.28107,1.33433 0,0 -2.39111,1.33526 -2.39111,1.33526 z"
       inkscape:connector-curvature="0" />
    <path
       style="fill:#ffffff;fill-opacity:1"
       id="path3648"
       d="m 148.43456,375.34018 c -0.0634,-0.42736 -0.10889,-0.85661 -0.13812,-1.28757 -0.0238,-0.39385 -0.0269,-0.78851 -0.0289,-1.18296 0.0265,-0.43741 -0.0123,-0.86885 -0.069,-1.30181 -0.0634,-0.50138 -0.0844,-1.006 -0.10027,-1.51063 -0.019,-0.4427 -0.0231,-0.88201 0.0332,-1.32176 0.0853,-0.41449 0.19539,-0.82501 0.38448,-1.20472 0.12205,-0.30041 0.30481,-0.54928 0.54857,-0.76024 0.82662,-0.46519 1.65324,-0.93039 2.47986,-1.39558 0.04,-0.0231 0.16006,-0.0923 0.11997,-0.0694 -0.7375,0.42216 -1.47389,0.84625 -2.21219,1.267 -0.0461,0.0263 0.0893,-0.0572 0.1354,-0.0834 0.82765,-0.47098 1.64307,-0.9645 2.48571,-1.40812 0.74957,-0.39461 -1.4709,0.8407 -2.20636,1.26105 1.22789,-0.80124 1.98748,-1.48284 3.27935,-1.56684 0.42407,-0.0262 0.83769,-0.0129 1.25543,0.059 0.39024,0.0581 0.7597,0.20108 1.13034,0.32892 0.41801,0.12831 0.83664,0.26248 1.24015,0.43276 0.36447,0.12514 0.6872,0.33575 0.9956,0.56224 0.32262,0.24257 0.55093,0.57817 0.75286,0.92213 0.17272,0.32213 0.33113,0.63939 0.41561,0.99656 0.11659,0.28281 0.15502,0.58647 0.23411,0.87902 0.0947,0.35562 0.17098,0.71645 0.25502,1.07523 0.0566,0.35396 0.11853,0.70254 0.20352,1.05075 0.0769,0.34368 0.17883,0.67901 0.23722,1.02694 0.0512,0.36581 0.12123,0.73097 0.20541,1.09075 0.10105,0.35613 0.14692,0.72611 0.29019,1.06901 0.13813,0.34663 0.36117,0.64581 0.63068,0.90056 0.32405,0.29312 0.67784,0.55527 1.04648,0.7897 0.33536,0.22869 0.71051,0.40257 1.0972,0.525 0.35259,0.10543 0.71957,0.0608 1.06511,-0.051 0.18113,-0.0833 0.35602,-0.17523 0.53276,-0.26672 0.061,-0.0316 0.24559,-0.12298 0.18616,-0.0885 -2.87085,1.66617 -2.82894,1.64261 -2.01369,1.14447 0.37314,-0.21053 0.69315,-0.49597 1.00704,-0.78407 0.30415,-0.27358 0.63142,-0.52191 0.9091,-0.8236 0.20985,-0.28532 0.41185,-0.57785 0.59859,-0.87884 0.1463,-0.30654 0.23845,-0.64012 0.31269,-0.9711 0.01,-0.0585 0.0199,-0.11702 0.0299,-0.17553 0,0 2.44217,-1.19951 2.44217,-1.19951 l 0,0 c -0.008,0.0625 -0.0159,0.12498 -0.0238,0.18747 -0.0621,0.35571 -0.16891,0.69882 -0.27431,1.04316 -0.15559,0.32942 -0.39573,0.60639 -0.5825,0.9187 -0.22962,0.35618 -0.58394,0.60764 -0.90962,0.87197 -0.30684,0.29502 -0.61338,0.59602 -0.96976,0.83172 -1.10645,0.65127 -2.17685,1.43753 -3.40681,1.83915 -0.39312,0.062 -0.77664,0.0765 -1.15413,-0.076 -0.39597,-0.15308 -0.78095,-0.33747 -1.12801,-0.58425 -0.37453,-0.2562 -0.74634,-0.51958 -1.07598,-0.83296 -0.28435,-0.28909 -0.54652,-0.60666 -0.6947,-0.98908 -0.14759,-0.35651 -0.21015,-0.73383 -0.30601,-1.10598 -0.0976,-0.36345 -0.1592,-0.74067 -0.2194,-1.11131 -0.0501,-0.34303 -0.15135,-0.66987 -0.23234,-1.00541 -0.0818,-0.35122 -0.153,-0.69935 -0.19523,-1.058 -0.0792,-0.35394 -0.16751,-0.70608 -0.26031,-1.05613 -0.0879,-0.29599 -0.11323,-0.60928 -0.23787,-0.89613 -0.0665,-0.33295 -0.2117,-0.62562 -0.36605,-0.92621 -0.18336,-0.31304 -0.39597,-0.61356 -0.70122,-0.8192 -0.29743,-0.20477 -0.59877,-0.40375 -0.94496,-0.51858 -0.40879,-0.15569 -0.82637,-0.28459 -1.24354,-0.4157 -0.357,-0.12686 -0.72078,-0.24096 -1.09789,-0.28973 -0.40573,-0.0527 -0.81576,-0.0391 -1.22238,0.002 -1.0483,0.15116 -2.60802,1.34452 1.45477,-1.03666 -4.13415,2.36942 -2.47107,1.4208 -0.2797,0.14819 0.0449,-0.0261 -0.0917,0.0489 -0.13672,0.0748 -0.82318,0.47452 -1.6424,0.95593 -2.46781,1.42655 -0.0408,0.0233 -0.17035,0.0784 -0.12991,0.0545 0.73441,-0.43355 1.47524,-0.85612 2.21286,-1.28418 -0.28059,0.11638 -0.5037,0.35057 -0.61705,0.63213 -0.0609,0.11075 -0.13534,0.21436 -0.18873,0.32894 -0.11763,0.25241 -0.12955,0.54114 -0.24439,0.79507 -0.0633,0.42733 -0.0732,0.853 -0.0574,1.28517 0.008,0.49542 0.0253,0.99164 0.0889,1.48355 0.0596,0.44204 0.12336,0.87912 0.0967,1.32713 -2e-5,0.39094 -6e-4,0.78204 0.0152,1.17273 0.0209,0.41603 0.0485,0.83459 0.14564,1.241 0,0 -2.4167,1.29208 -2.4167,1.29208 z"
       inkscape:connector-curvature="0" />
    <path
       style="fill:#ffffff;fill-opacity:1"
       id="path3650"
       d="m 152.13931,376.79451 c -0.0271,-0.47516 -0.097,-0.94651 -0.12873,-1.42163 -0.0391,-0.54948 -0.0334,-1.10052 -0.0315,-1.65096 0.001,-0.70958 -0.005,-1.41709 0.0505,-2.12485 0.0442,-0.59215 0.15411,-1.1774 0.28851,-1.75503 0.10743,-0.40326 0.24699,-0.79522 0.40084,-1.1825 0.13856,-0.40892 0.40829,-0.7428 0.68576,-1.06525 0.96877,-1.07418 1.72571,-1.28987 3.2471,-2.16584 0.33712,-0.18574 0.71382,-0.24314 1.09148,-0.27636 0.42513,-0.004 0.85471,-0.0519 1.27592,0.016 0.42795,0.0507 0.79728,0.26215 1.17146,0.45726 0.41252,0.23445 0.78013,0.53974 1.10687,0.882 0.30745,0.33144 0.53969,0.72226 0.74935,1.12035 0.22753,0.46616 0.42376,0.94809 0.63717,1.42186 0.24262,0.48553 0.41467,1.00274 0.5972,1.51305 0.22039,0.48216 0.39362,0.98304 0.53217,1.49433 0.12926,0.54536 0.1507,1.10595 0.16822,1.66356 -0.0176,0.53939 0.0574,1.07214 0.11094,1.6071 0.0236,0.47048 0.085,0.934 0.15462,1.39912 0.0408,0.51716 0.13228,1.02731 0.20847,1.53983 0.065,0.35323 0.19597,0.70793 0.48256,0.93686 0.2945,0.1614 0.61168,0.26493 0.92214,0.3898 0.2963,0.0963 0.59998,0.17801 0.88477,0.0228 -4.11846,2.33613 -2.27992,1.43115 -1.48581,0.67873 0.28534,-0.28771 0.51551,-0.62468 0.73854,-0.96146 0.27602,-0.40243 0.50793,-0.82894 0.72761,-1.26386 0.17999,-0.37894 0.36344,-0.75506 0.57474,-1.11756 0.0959,-0.15901 0.18674,-0.32092 0.27771,-0.48275 0,0 2.47972,-1.11563 2.47972,-1.11563 l 0,0 c -0.084,0.17027 -0.18133,0.33063 -0.26926,0.49883 -0.22905,0.3529 -0.42788,0.72106 -0.59864,1.10596 -0.22726,0.43128 -0.42372,0.87902 -0.70915,1.27657 -0.20364,0.36434 -0.46039,0.69412 -0.7146,1.02446 -0.92786,0.94208 -1.81704,1.39628 -3.18238,2.02339 -0.34034,0.0346 -0.67488,-0.0455 -0.98997,-0.17454 -0.33128,-0.14021 -0.68335,-0.24402 -0.97077,-0.46922 -0.30701,-0.30213 -0.48476,-0.68802 -0.55948,-1.11208 -0.0645,-0.51241 -0.16451,-1.01918 -0.21061,-1.53377 -0.0745,-0.47134 -0.14021,-0.93913 -0.15046,-1.4175 -0.0539,-0.54084 -0.14085,-1.08005 -0.11993,-1.62516 -0.01,-0.538 -0.0262,-1.07963 -0.14076,-1.60747 -0.1276,-0.50529 -0.3059,-0.99668 -0.52141,-1.47118 -0.18775,-0.50244 -0.33581,-1.02158 -0.58042,-1.50075 -0.20845,-0.46889 -0.4241,-0.9363 -0.64917,-1.39678 -0.19344,-0.37702 -0.41256,-0.74623 -0.70368,-1.05687 -0.31214,-0.32048 -0.66885,-0.59626 -1.06589,-0.80465 -0.35147,-0.1843 -0.71403,-0.34251 -1.11572,-0.37253 -0.41408,-0.0211 -0.83126,-0.008 -1.24335,0.0377 -0.36488,0.0582 -0.7122,0.16418 -1.03302,0.35275 0.72128,-0.42184 1.44257,-0.84369 2.16385,-1.26553 -0.1568,0.0911 -0.18329,0.0954 -0.31996,0.22115 -0.16157,0.14865 -0.29158,0.33164 -0.47467,0.45748 -0.26952,0.295 -0.55059,0.59374 -0.70912,0.96622 -0.13715,0.39155 -0.32605,0.76214 -0.43716,1.16447 -0.14536,0.56792 -0.27314,1.14397 -0.32602,1.72865 -0.0718,0.69835 -0.0719,1.39739 -0.0551,2.09906 0.006,0.54308 0.0121,1.08636 0.037,1.62896 0.032,0.47553 0.0697,0.95272 0.17384,1.41892 0,0 -2.44227,1.2444 -2.44227,1.2444 z"
       inkscape:connector-curvature="0" />
  </g>
</svg>
