<?xml version="1.0" encoding="UTF-8" standalone="no"?>
<!-- Created with Inkscape (http://www.inkscape.org/) -->

<svg
   xmlns:dc="http://purl.org/dc/elements/1.1/"
   xmlns:cc="http://creativecommons.org/ns#"
   xmlns:rdf="http://www.w3.org/1999/02/22-rdf-syntax-ns#"
   xmlns:svg="http://www.w3.org/2000/svg"
   xmlns="http://www.w3.org/2000/svg"
   xmlns:sodipodi="http://sodipodi.sourceforge.net/DTD/sodipodi-0.dtd"
   xmlns:inkscape="http://www.inkscape.org/namespaces/inkscape"
   width="744.09448819"
   height="1052.3622047"
   id="svg3476"
   version="1.1"
   inkscape:version="0.48.5 r10040"
   sodipodi:docname="New document 11">
  <defs
     id="defs3478" />
  <sodipodi:namedview
     id="base"
     pagecolor="#ffffff"
     bordercolor="#666666"
     borderopacity="1.0"
     inkscape:pageopacity="0.0"
     inkscape:pageshadow="2"
     inkscape:zoom="0.49497475"
     inkscape:cx="662.66298"
     inkscape:cy="517.48949"
     inkscape:document-units="px"
     inkscape:current-layer="layer1"
     showgrid="false"
     inkscape:window-width="1920"
     inkscape:window-height="1027"
     inkscape:window-x="0"
     inkscape:window-y="31"
     inkscape:window-maximized="1" />
  <metadata
     id="metadata3481">
    <rdf:RDF>
      <cc:Work
         rdf:about="">
        <dc:format>image/svg+xml</dc:format>
        <dc:type
           rdf:resource="http://purl.org/dc/dcmitype/StillImage" />
        <dc:title></dc:title>
      </cc:Work>
    </rdf:RDF>
  </metadata>
  <g
     inkscape:label="Layer 1"
     inkscape:groupmode="layer"
     id="layer1">
    <path
       style="fill:#000000"
       id="path3082"
       d="m 434.19442,449.8736 c 0.37966,1.34231 0.85699,2.65297 1.32471,3.96613 0.50703,1.46019 1.05541,2.90743 1.7338,4.29711 0.92287,1.72295 1.65088,3.53774 2.5046,5.29333 0.94832,1.89759 1.80927,3.84113 2.78878,5.72301 0.77042,1.3864 1.43929,2.826 2.19771,4.21886 0.63665,1.15273 1.32151,2.27656 1.92892,3.44535 0.51366,0.98852 1.13663,1.92169 1.83672,2.78742 0.57445,0.70829 1.04409,1.49231 1.60006,2.2135 0.55477,0.81348 1.06765,1.64576 1.52381,2.51769 0,0 -4.59965,2.62905 -4.59965,2.62905 l 0,0 c -0.43909,-0.84673 -0.92349,-1.66059 -1.47028,-2.44387 -0.54718,-0.72464 -1.04535,-1.48519 -1.60116,-2.20385 -0.69632,-0.90966 -1.34143,-1.86378 -1.86412,-2.88497 -0.60921,-1.16482 -1.28693,-2.28976 -1.91856,-3.44235 -0.75095,-1.40112 -1.41421,-2.84666 -2.17468,-4.24249 -0.97447,-1.88973 -1.80275,-3.85292 -2.77615,-5.7439 -0.86225,-1.75018 -1.60914,-3.55522 -2.53466,-5.27492 -0.69606,-1.40296 -1.26176,-2.86511 -1.77926,-4.34271 -0.4605,-1.31646 -0.93216,-2.62837 -1.36521,-3.95439 0,0 4.64462,-2.558 4.64462,-2.558 z"
       inkscape:connector-curvature="0" />
    <path
       style="fill:#000000"
       id="path3084"
       d="m 408.56016,486.3518 c 2.59299,0.0452 5.18657,0.0484 7.77989,0.0546 3.81661,-0.0798 7.62635,0.19609 11.42856,0.49576 3.65229,0.31653 7.31582,0.45102 10.97993,0.52346 1.85787,0.0305 3.71598,0.0259 5.57395,0.0109 0.9974,-0.002 1.99479,-0.009 2.99219,-0.009 0.81617,0.0947 1.53379,-0.11824 2.2836,-0.39208 0.52073,-0.40922 1.13479,-0.55145 1.77643,-0.63223 0.59581,-0.2777 1.24064,-0.32789 1.88604,-0.36987 0,0 -4.2631,3.15836 -4.2631,3.15836 l 0,0 c -0.6384,0.0782 -1.24279,0.25849 -1.86476,0.41193 -0.61432,0.14956 -1.14755,0.44914 -1.726,0.69185 -0.77499,0.24388 -1.56467,0.27874 -2.37423,0.24394 -0.99429,0.003 -1.98859,7.3e-4 -2.98287,10e-4 -1.8241,-0.0158 -3.64808,-0.0485 -5.4715,-0.10086 -3.6557,-0.10827 -7.3106,-0.26706 -10.95572,-0.57414 -3.80138,-0.2903 -7.60917,-0.54577 -11.42415,-0.45019 -2.64346,0.006 -5.28715,0.0102 -7.93029,0.0546 0,0 4.29203,-3.11835 4.29203,-3.11835 z"
       inkscape:connector-curvature="0" />
    <path
       style="fill:#000000"
       id="path3082-0"
       d="m 432.88821,488.64378 c 0.37966,1.34231 0.85699,2.65297 1.32471,3.96613 0.50703,1.46019 1.05541,2.90743 1.7338,4.29711 0.92287,1.72295 1.65088,3.53774 2.5046,5.29333 0.94832,1.89759 1.80927,3.84113 2.78878,5.72301 0.77042,1.3864 1.43929,2.826 2.19771,4.21886 0.63665,1.15273 1.32151,2.27656 1.92892,3.44535 0.51366,0.98852 1.13663,1.92169 1.83672,2.78742 0.57445,0.70829 1.04409,1.49231 1.60006,2.2135 0.55477,0.81348 1.06765,1.64576 1.52381,2.51769 0,0 -4.59965,2.62905 -4.59965,2.62905 l 0,0 c -0.43909,-0.84673 -0.92349,-1.66059 -1.47028,-2.44387 -0.54718,-0.72464 -1.04535,-1.48519 -1.60116,-2.20385 -0.69632,-0.90966 -1.34143,-1.86378 -1.86412,-2.88497 -0.60921,-1.16482 -1.28693,-2.28976 -1.91856,-3.44235 -0.75095,-1.40112 -1.41421,-2.84666 -2.17468,-4.24249 -0.97447,-1.88973 -1.80275,-3.85292 -2.77615,-5.7439 -0.86225,-1.75018 -1.60914,-3.55522 -2.53466,-5.27492 -0.69606,-1.40296 -1.26176,-2.86511 -1.77926,-4.34271 -0.4605,-1.31646 -0.93216,-2.62837 -1.36521,-3.95439 0,0 4.64462,-2.558 4.64462,-2.558 z"
       inkscape:connector-curvature="0" />
    <path
       style="fill:#000000"
       id="path3084-5"
       d="m 407.25395,525.12198 c 2.59299,0.0452 5.18657,0.0484 7.77989,0.0546 3.81661,-0.0798 7.62635,0.19609 11.42856,0.49576 3.65229,0.31653 7.31582,0.45102 10.97993,0.52346 1.85787,0.0305 3.71598,0.0259 5.57395,0.0109 0.9974,-0.002 1.99479,-0.009 2.99219,-0.009 0.81617,0.0947 1.53379,-0.11824 2.2836,-0.39208 0.52073,-0.40922 1.13479,-0.55145 1.77643,-0.63223 0.59581,-0.2777 1.24064,-0.32789 1.88604,-0.36987 0,0 -4.2631,3.15836 -4.2631,3.15836 l 0,0 c -0.6384,0.0782 -1.24279,0.25849 -1.86476,0.41193 -0.61432,0.14956 -1.14755,0.44914 -1.726,0.69185 -0.77499,0.24388 -1.56467,0.27874 -2.37423,0.24394 -0.99429,0.003 -1.98859,7.3e-4 -2.98287,10e-4 -1.8241,-0.0158 -3.64808,-0.0485 -5.4715,-0.10086 -3.6557,-0.10827 -7.3106,-0.26706 -10.95572,-0.57414 -3.80138,-0.2903 -7.60917,-0.54577 -11.42415,-0.45019 -2.64346,0.006 -5.28715,0.0102 -7.93029,0.0546 0,0 4.29203,-3.11835 4.29203,-3.11835 z"
       inkscape:connector-curvature="0" />
    <path
       style="fill:#000000"
       id="path3082-3"
       d="m 432.17392,526.85807 c 0.37966,1.34231 0.85699,2.65297 1.32471,3.96613 0.50703,1.46019 1.05541,2.90743 1.7338,4.29711 0.92287,1.72295 1.65088,3.53774 2.5046,5.29333 0.94832,1.89759 1.80927,3.84113 2.78878,5.72301 0.77042,1.3864 1.43929,2.826 2.19771,4.21886 0.63665,1.15273 1.32151,2.27656 1.92892,3.44535 0.51366,0.98852 1.13663,1.92169 1.83672,2.78742 0.57445,0.70829 1.04409,1.49231 1.60006,2.2135 0.55477,0.81348 1.06765,1.64576 1.52381,2.51769 0,0 -4.59965,2.62905 -4.59965,2.62905 l 0,0 c -0.43909,-0.84673 -0.92349,-1.66059 -1.47028,-2.44387 -0.54718,-0.72464 -1.04535,-1.48519 -1.60116,-2.20385 -0.69632,-0.90966 -1.34143,-1.86378 -1.86412,-2.88497 -0.60921,-1.16482 -1.28693,-2.28976 -1.91856,-3.44235 -0.75095,-1.40112 -1.41421,-2.84666 -2.17468,-4.24249 -0.97447,-1.88973 -1.80275,-3.85292 -2.77615,-5.7439 -0.86225,-1.75018 -1.60914,-3.55522 -2.53466,-5.27492 -0.69606,-1.40296 -1.26176,-2.86511 -1.77926,-4.34271 -0.4605,-1.31646 -0.93216,-2.62837 -1.36521,-3.95439 0,0 4.64462,-2.558 4.64462,-2.558 z"
       inkscape:connector-curvature="0" />
    <path
       style="fill:#000000"
       id="path3084-4"
       d="m 406.53966,563.33627 c 2.59299,0.0452 5.18657,0.0484 7.77989,0.0546 3.81661,-0.0798 7.62635,0.19609 11.42856,0.49576 3.65229,0.31653 7.31582,0.45102 10.97993,0.52346 1.85787,0.0305 3.71598,0.0259 5.57395,0.0109 0.9974,-0.002 1.99479,-0.009 2.99219,-0.009 0.81617,0.0947 1.53379,-0.11824 2.2836,-0.39208 0.52073,-0.40922 1.13479,-0.55145 1.77643,-0.63223 0.59581,-0.2777 1.24064,-0.32789 1.88604,-0.36987 0,0 -4.2631,3.15836 -4.2631,3.15836 l 0,0 c -0.6384,0.0782 -1.24279,0.25849 -1.86476,0.41193 -0.61432,0.14956 -1.14755,0.44914 -1.726,0.69185 -0.77499,0.24388 -1.56467,0.27874 -2.37423,0.24394 -0.99429,0.003 -1.98859,7.3e-4 -2.98287,10e-4 -1.8241,-0.0158 -3.64808,-0.0485 -5.4715,-0.10086 -3.6557,-0.10827 -7.3106,-0.26706 -10.95572,-0.57414 -3.80138,-0.2903 -7.60917,-0.54577 -11.42415,-0.45019 -2.64346,0.006 -5.28715,0.0102 -7.93029,0.0546 0,0 4.29203,-3.11835 4.29203,-3.11835 z"
       inkscape:connector-curvature="0" />
    <path
       style="fill:#000000"
       id="path3082-7"
       d="m 432.28926,564.64659 c 0.37966,1.34231 0.85699,2.65297 1.32471,3.96613 0.50703,1.46019 1.05541,2.90743 1.7338,4.29711 0.92287,1.72295 1.65088,3.53774 2.5046,5.29333 0.94832,1.89759 1.80927,3.84113 2.78878,5.72301 0.77042,1.3864 1.43929,2.826 2.19771,4.21886 0.63665,1.15273 1.32151,2.27656 1.92892,3.44535 0.51366,0.98852 1.13663,1.92169 1.83672,2.78742 0.57445,0.70829 1.04409,1.49231 1.60006,2.2135 0.55477,0.81348 1.06765,1.64576 1.52381,2.51769 0,0 -4.59965,2.62905 -4.59965,2.62905 l 0,0 c -0.43909,-0.84673 -0.92349,-1.66059 -1.47028,-2.44387 -0.54718,-0.72464 -1.04535,-1.48519 -1.60116,-2.20385 -0.69632,-0.90966 -1.34143,-1.86378 -1.86412,-2.88497 -0.60921,-1.16482 -1.28693,-2.28976 -1.91856,-3.44235 -0.75095,-1.40112 -1.41421,-2.84666 -2.17468,-4.24249 -0.97447,-1.88973 -1.80275,-3.85292 -2.77615,-5.7439 -0.86225,-1.75018 -1.60914,-3.55522 -2.53466,-5.27492 -0.69606,-1.40296 -1.26176,-2.86511 -1.77926,-4.34271 -0.4605,-1.31646 -0.93216,-2.62837 -1.36521,-3.95439 0,0 4.64462,-2.558 4.64462,-2.558 z"
       inkscape:connector-curvature="0" />
    <path
       style="fill:#000000"
       id="path3084-9"
       d="m 406.655,601.12479 c 2.59299,0.0452 5.18657,0.0484 7.77989,0.0546 3.81661,-0.0798 7.62635,0.19609 11.42856,0.49576 3.65229,0.31653 7.31582,0.45102 10.97993,0.52346 1.85787,0.0305 3.71598,0.0259 5.57395,0.0109 0.9974,-0.002 1.99479,-0.009 2.99219,-0.009 0.81617,0.0947 1.53379,-0.11824 2.2836,-0.39208 0.52073,-0.40922 1.13479,-0.55145 1.77643,-0.63223 0.59581,-0.2777 1.24064,-0.32789 1.88604,-0.36987 0,0 -4.2631,3.15836 -4.2631,3.15836 l 0,0 c -0.6384,0.0782 -1.24279,0.25849 -1.86476,0.41193 -0.61432,0.14956 -1.14755,0.44914 -1.726,0.69185 -0.77499,0.24388 -1.56467,0.27874 -2.37423,0.24394 -0.99429,0.003 -1.98859,7.3e-4 -2.98287,10e-4 -1.8241,-0.0158 -3.64808,-0.0485 -5.4715,-0.10086 -3.6557,-0.10827 -7.3106,-0.26706 -10.95572,-0.57414 -3.80138,-0.2903 -7.60917,-0.54577 -11.42415,-0.45019 -2.64346,0.006 -5.28715,0.0102 -7.93029,0.0546 0,0 4.29203,-3.11835 4.29203,-3.11835 z"
       inkscape:connector-curvature="0" />
    <path
       style="fill:#000000"
       id="path3082-9"
       d="m 435.31972,602.52731 c 0.37966,1.34231 0.85699,2.65297 1.32471,3.96613 0.50703,1.46019 1.05541,2.90743 1.7338,4.29711 0.92287,1.72295 1.65088,3.53774 2.5046,5.29333 0.94832,1.89759 1.80927,3.84113 2.78878,5.72301 0.77042,1.3864 1.43929,2.826 2.19771,4.21886 0.63665,1.15273 1.32151,2.27656 1.92892,3.44535 0.51366,0.98852 1.13663,1.92169 1.83672,2.78742 0.57445,0.70829 1.04409,1.49231 1.60006,2.2135 0.55477,0.81348 1.06765,1.64576 1.52381,2.51769 0,0 -4.59965,2.62905 -4.59965,2.62905 l 0,0 c -0.43909,-0.84673 -0.92349,-1.66059 -1.47028,-2.44387 -0.54718,-0.72464 -1.04535,-1.48519 -1.60116,-2.20385 -0.69632,-0.90966 -1.34143,-1.86378 -1.86412,-2.88497 -0.60921,-1.16482 -1.28693,-2.28976 -1.91856,-3.44235 -0.75095,-1.40112 -1.41421,-2.84666 -2.17468,-4.24249 -0.97447,-1.88973 -1.80275,-3.85292 -2.77615,-5.7439 -0.86225,-1.75018 -1.60914,-3.55522 -2.53466,-5.27492 -0.69606,-1.40296 -1.26176,-2.86511 -1.77926,-4.34271 -0.4605,-1.31646 -0.93216,-2.62837 -1.36521,-3.95439 0,0 4.64462,-2.558 4.64462,-2.558 z"
       inkscape:connector-curvature="0" />
    <path
       style="fill:#000000"
       id="path3084-7"
       d="m 409.68546,639.00551 c 2.59299,0.0452 5.18657,0.0484 7.77989,0.0546 3.81661,-0.0798 7.62635,0.19609 11.42856,0.49576 3.65229,0.31653 7.31582,0.45102 10.97993,0.52346 1.85787,0.0305 3.71598,0.0259 5.57395,0.0109 0.9974,-0.002 1.99479,-0.009 2.99219,-0.009 0.81617,0.0947 1.53379,-0.11824 2.2836,-0.39208 0.52073,-0.40922 1.13479,-0.55145 1.77643,-0.63223 0.59581,-0.2777 1.24064,-0.32789 1.88604,-0.36987 0,0 -4.2631,3.15836 -4.2631,3.15836 l 0,0 c -0.6384,0.0782 -1.24279,0.25849 -1.86476,0.41193 -0.61432,0.14956 -1.14755,0.44914 -1.726,0.69185 -0.77499,0.24388 -1.56467,0.27874 -2.37423,0.24394 -0.99429,0.003 -1.98859,7.3e-4 -2.98287,10e-4 -1.8241,-0.0158 -3.64808,-0.0485 -5.4715,-0.10086 -3.6557,-0.10827 -7.3106,-0.26706 -10.95572,-0.57414 -3.80138,-0.2903 -7.60917,-0.54577 -11.42415,-0.45019 -2.64346,0.006 -5.28715,0.0102 -7.93029,0.0546 0,0 4.29203,-3.11835 4.29203,-3.11835 z"
       inkscape:connector-curvature="0" />
    <path
       style="fill:#000000"
       id="path3157"
       d="m 369.38084,459.03892 c 2.38715,0.0167 4.76535,10e-4 7.14604,0.18684 1.9481,0.17305 3.90155,0.26211 5.85639,0.30462 1.81875,0.1007 3.62409,-0.16207 5.43444,-0.29608 1.71121,-0.11884 3.42572,-0.16241 5.14041,-0.18732 1.31142,-0.0113 2.62299,-0.0128 3.93446,-0.009 1.52575,0.095 3.02747,-0.075 4.53817,-0.25712 1.19723,-0.15376 2.4025,-0.2144 3.60828,-0.24245 1.03109,-0.24461 2.09061,-0.28 3.058,-0.73177 1.20429,-0.46384 2.36935,-1.01211 3.60698,-1.38977 1.33122,-0.52963 2.65777,-1.07627 4.02831,-1.49898 1.17868,-0.51119 2.33864,-1.06339 3.50081,-1.61131 1.16931,-0.56519 2.38693,-0.98015 3.62307,-1.37283 1.38408,-0.41507 2.73685,-0.9099 4.0907,-1.41416 1.08995,-0.29226 2.02454,-0.9444 3.03665,-1.41858 1.0761,-0.65865 2.31099,-0.96025 3.46633,-1.43936 1.1746,-0.36365 2.21758,-0.99857 3.29372,-1.56989 -10.32982,6.28394 -7.26695,4.27175 -5.10792,2.85568 0,0 6.98738,-2.74422 6.98738,-2.74422 l 0,0 c -2.43764,1.74311 -5.28654,2.82285 -7.71788,4.59002 -1.07205,0.59193 -2.19271,1.07733 -3.34509,1.4926 -1.17317,0.43196 -2.34187,0.8732 -3.43088,1.49594 -0.99415,0.52366 -1.99449,1.02969 -3.07677,1.3514 -1.35576,0.50902 -2.73965,0.93064 -4.11126,1.39385 -1.21559,0.41868 -2.41047,0.87657 -3.56946,1.43694 -1.17691,0.52808 -2.31536,1.15312 -3.55012,1.54179 -1.3542,0.47294 -2.67933,1.02317 -4.03036,1.50402 -1.21505,0.4386 -2.3853,0.98799 -3.6051,1.41427 -1.04478,0.28258 -2.12746,0.45309 -3.2051,0.5437 -1.18603,0.044 -2.36962,0.12981 -3.54781,0.27625 -1.53042,0.16715 -3.05959,0.2391 -4.59982,0.19547 -1.30625,0.002 -2.61254,-0.005 -3.91873,0.0114 -1.69688,0.0236 -3.39401,0.074 -5.08634,0.20665 -1.82725,0.15027 -3.6543,0.35959 -5.49094,0.23989 -1.95271,-0.0655 -3.90254,-0.17973 -5.84895,-0.35256 -2.38756,-0.16816 -4.77859,-0.1501 -7.17086,-0.10079 0,0 6.06325,-4.40521 6.06325,-4.40521 z"
       inkscape:connector-curvature="0" />
    <path
       style="fill:#000000"
       id="path3157-4"
       d="m 361.93476,490.01686 c 2.38715,0.0167 4.76535,10e-4 7.14605,0.18684 1.94809,0.17305 3.90155,0.26211 5.85638,0.30462 1.81875,0.1007 3.6241,-0.16207 5.43445,-0.29608 1.71121,-0.11884 3.42572,-0.16241 5.14041,-0.18732 1.31142,-0.0113 2.62299,-0.0128 3.93446,-0.009 1.52575,0.095 3.02747,-0.075 4.53817,-0.25712 1.19723,-0.15376 2.4025,-0.2144 3.60828,-0.24245 1.03109,-0.24461 2.09061,-0.28 3.058,-0.73177 1.20429,-0.46384 2.36935,-1.01211 3.60698,-1.38977 1.33122,-0.52963 2.65777,-1.07627 4.02831,-1.49898 1.17868,-0.51119 2.33864,-1.06339 3.50081,-1.61131 1.16931,-0.56519 2.38693,-0.98015 3.62307,-1.37283 1.38408,-0.41507 2.73685,-0.9099 4.0907,-1.41416 1.08995,-0.29226 2.02454,-0.9444 3.03665,-1.41858 1.0761,-0.65865 2.31099,-0.96025 3.46633,-1.43936 1.1746,-0.36365 2.21758,-0.99857 3.29372,-1.56989 -10.32982,6.28394 -7.26695,4.27175 -5.10792,2.85568 0,0 6.98738,-2.74422 6.98738,-2.74422 l 0,0 c -2.43764,1.74311 -5.28654,2.82285 -7.71788,4.59002 -1.07205,0.59193 -2.19271,1.07733 -3.34509,1.4926 -1.17317,0.43196 -2.34187,0.8732 -3.43088,1.49594 -0.99415,0.52366 -1.99449,1.02969 -3.07677,1.3514 -1.35576,0.50902 -2.73965,0.93064 -4.11126,1.39385 -1.21559,0.41868 -2.41047,0.87657 -3.56946,1.43694 -1.17691,0.52808 -2.31536,1.15312 -3.55012,1.54179 -1.3542,0.47294 -2.67933,1.02317 -4.03036,1.50402 -1.21505,0.4386 -2.3853,0.98799 -3.6051,1.41427 -1.04478,0.28258 -2.12746,0.45309 -3.2051,0.5437 -1.18603,0.044 -2.36962,0.12981 -3.54781,0.27625 -1.53042,0.16715 -3.05959,0.2391 -4.59982,0.19547 -1.30625,0.002 -2.61254,-0.005 -3.91874,0.0114 -1.69687,0.0236 -3.39401,0.074 -5.08633,0.20665 -1.82726,0.15027 -3.6543,0.35959 -5.49094,0.23989 -1.95272,-0.0655 -3.90254,-0.17973 -5.84895,-0.35256 -2.38756,-0.16816 -4.7786,-0.1501 -7.17087,-0.10079 0,0 6.06325,-4.40521 6.06325,-4.40521 z"
       inkscape:connector-curvature="0" />
    <path
       style="fill:#000000"
       id="path3157-4-4"
       d="m 363.44999,525.87728 c 2.38715,0.0167 4.76535,10e-4 7.14605,0.18684 1.94809,0.17305 3.90155,0.26211 5.85638,0.30462 1.81875,0.1007 3.6241,-0.16207 5.43445,-0.29608 1.71121,-0.11884 3.42572,-0.16241 5.14041,-0.18732 1.31141,-0.0113 2.62298,-0.0128 3.93445,-0.009 1.52575,0.095 3.02747,-0.075 4.53817,-0.25712 1.19723,-0.15376 2.4025,-0.2144 3.60828,-0.24245 1.03109,-0.24461 2.09061,-0.28 3.058,-0.73177 1.20429,-0.46384 2.36935,-1.01211 3.60698,-1.38977 1.33122,-0.52963 2.65777,-1.07627 4.02831,-1.49898 1.17868,-0.51119 2.33864,-1.06339 3.50081,-1.61131 1.16931,-0.56519 2.38693,-0.98015 3.62307,-1.37283 1.38408,-0.41507 2.73685,-0.9099 4.0907,-1.41416 1.08995,-0.29226 2.02454,-0.9444 3.03665,-1.41858 1.0761,-0.65865 2.31099,-0.96025 3.46633,-1.43936 1.1746,-0.36365 2.21758,-0.99857 3.29372,-1.56989 -10.32982,6.28394 -7.26695,4.27175 -5.10792,2.85568 0,0 6.98738,-2.74422 6.98738,-2.74422 l 0,0 c -2.43764,1.74311 -5.28654,2.82285 -7.71788,4.59002 -1.07205,0.59193 -2.19271,1.07733 -3.34509,1.4926 -1.17317,0.43196 -2.34187,0.8732 -3.43088,1.49594 -0.99415,0.52366 -1.99449,1.02969 -3.07677,1.3514 -1.35576,0.50902 -2.73965,0.93064 -4.11126,1.39385 -1.21559,0.41868 -2.41047,0.87657 -3.56946,1.43694 -1.17691,0.52808 -2.31536,1.15312 -3.55012,1.54179 -1.3542,0.47294 -2.67933,1.02317 -4.03036,1.50402 -1.21505,0.4386 -2.3853,0.98799 -3.6051,1.41427 -1.04478,0.28258 -2.12746,0.45309 -3.2051,0.5437 -1.18603,0.044 -2.36962,0.12981 -3.54781,0.27625 -1.53042,0.16715 -3.05958,0.2391 -4.59981,0.19547 -1.30625,0.002 -2.61254,-0.005 -3.91874,0.0114 -1.69687,0.0236 -3.39401,0.074 -5.08633,0.20665 -1.82726,0.15027 -3.6543,0.35959 -5.49094,0.23989 -1.95272,-0.0655 -3.90255,-0.17973 -5.84896,-0.35256 -2.38755,-0.16816 -4.77859,-0.1501 -7.17086,-0.10079 0,0 6.06325,-4.40521 6.06325,-4.40521 z"
       inkscape:connector-curvature="0" />
    <path
       style="fill:#000000"
       id="path3157-4-0"
       d="m 364.96522,565.27322 c 2.38714,0.0167 4.76534,10e-4 7.14604,0.18684 1.94809,0.17305 3.90155,0.26211 5.85638,0.30462 1.81875,0.1007 3.6241,-0.16207 5.43445,-0.29608 1.71121,-0.11884 3.42572,-0.16241 5.14041,-0.18732 1.31142,-0.0113 2.62299,-0.0128 3.93446,-0.009 1.52575,0.095 3.02747,-0.075 4.53817,-0.25712 1.19723,-0.15376 2.4025,-0.2144 3.60828,-0.24245 1.03109,-0.24461 2.09061,-0.28 3.058,-0.73177 1.20429,-0.46384 2.36935,-1.01211 3.60698,-1.38977 1.33122,-0.52963 2.65777,-1.07627 4.02831,-1.49898 1.17868,-0.51119 2.33864,-1.06339 3.50081,-1.61131 1.16931,-0.56519 2.38693,-0.98015 3.62307,-1.37283 1.38408,-0.41507 2.73685,-0.9099 4.0907,-1.41416 1.08995,-0.29226 2.02454,-0.9444 3.03665,-1.41858 1.0761,-0.65865 2.31099,-0.96025 3.46633,-1.43936 1.1746,-0.36365 2.21758,-0.99857 3.29372,-1.56989 -10.32982,6.28394 -7.26695,4.27175 -5.10792,2.85568 0,0 6.98738,-2.74422 6.98738,-2.74422 l 0,0 c -2.43764,1.74311 -5.28654,2.82285 -7.71788,4.59002 -1.07205,0.59193 -2.19271,1.07733 -3.34509,1.4926 -1.17317,0.43196 -2.34187,0.8732 -3.43088,1.49594 -0.99415,0.52366 -1.99449,1.02969 -3.07677,1.3514 -1.35576,0.50902 -2.73965,0.93064 -4.11126,1.39385 -1.21559,0.41868 -2.41047,0.87657 -3.56946,1.43694 -1.17691,0.52808 -2.31536,1.15312 -3.55012,1.54179 -1.3542,0.47294 -2.67933,1.02317 -4.03036,1.50402 -1.21505,0.4386 -2.3853,0.98799 -3.6051,1.41427 -1.04478,0.28258 -2.12746,0.45309 -3.2051,0.5437 -1.18603,0.044 -2.36962,0.12981 -3.54781,0.27625 -1.53042,0.16715 -3.05959,0.2391 -4.59982,0.19547 -1.30625,0.002 -2.61254,-0.005 -3.91874,0.0114 -1.69687,0.0236 -3.39401,0.074 -5.08633,0.20665 -1.82726,0.15027 -3.6543,0.35959 -5.49094,0.23989 -1.95272,-0.0655 -3.90254,-0.17973 -5.84895,-0.35256 -2.38756,-0.16816 -4.7786,-0.1501 -7.17086,-0.10079 0,0 6.06325,-4.40521 6.06325,-4.40521 z"
       inkscape:connector-curvature="0" />
    <path
       style="fill:#000000"
       id="path3157-4-02"
       d="m 367.99568,601.13363 c 2.38714,0.0167 4.76534,10e-4 7.14604,0.18684 1.94809,0.17305 3.90155,0.26211 5.85638,0.30462 1.81875,0.1007 3.6241,-0.16207 5.43445,-0.29608 1.71121,-0.11884 3.42572,-0.16241 5.14041,-0.18732 1.31142,-0.0113 2.623,-0.0128 3.93447,-0.009 1.52575,0.095 3.02747,-0.075 4.53817,-0.25712 1.19723,-0.15376 2.4025,-0.2144 3.60828,-0.24245 1.03109,-0.24461 2.09061,-0.28 3.058,-0.73177 1.20429,-0.46384 2.36935,-1.01211 3.60698,-1.38977 1.33122,-0.52963 2.65777,-1.07627 4.02831,-1.49898 1.17868,-0.51119 2.33864,-1.06339 3.50081,-1.61131 1.16931,-0.56519 2.38693,-0.98015 3.62307,-1.37283 1.38408,-0.41507 2.73685,-0.9099 4.0907,-1.41416 1.08995,-0.29226 2.02454,-0.9444 3.03665,-1.41858 1.0761,-0.65865 2.31099,-0.96025 3.46633,-1.43936 1.1746,-0.36365 2.21758,-0.99857 3.29372,-1.56989 -10.32982,6.28394 -7.26695,4.27175 -5.10792,2.85568 0,0 6.98738,-2.74422 6.98738,-2.74422 l 0,0 c -2.43764,1.74311 -5.28654,2.82285 -7.71788,4.59002 -1.07205,0.59193 -2.19271,1.07733 -3.34509,1.4926 -1.17317,0.43196 -2.34187,0.8732 -3.43088,1.49594 -0.99415,0.52366 -1.99449,1.02969 -3.07677,1.3514 -1.35576,0.50902 -2.73965,0.93064 -4.11126,1.39385 -1.21559,0.41868 -2.41047,0.87657 -3.56946,1.43694 -1.17691,0.52808 -2.31536,1.15312 -3.55012,1.54179 -1.3542,0.47294 -2.67933,1.02317 -4.03036,1.50402 -1.21505,0.4386 -2.3853,0.98799 -3.6051,1.41427 -1.04478,0.28258 -2.12746,0.45309 -3.2051,0.5437 -1.18603,0.044 -2.36962,0.12981 -3.54781,0.27625 -1.53043,0.16715 -3.0596,0.2391 -4.59983,0.19547 -1.30625,0.002 -2.61254,-0.005 -3.91874,0.0114 -1.69687,0.0236 -3.39401,0.074 -5.08633,0.20665 -1.82726,0.15027 -3.6543,0.35959 -5.49094,0.23989 -1.95272,-0.0655 -3.90254,-0.17973 -5.84895,-0.35256 -2.38756,-0.16816 -4.7786,-0.1501 -7.17087,-0.10079 0,0 6.06326,-4.40521 6.06326,-4.40521 z"
       inkscape:connector-curvature="0" />
    <path
       style="fill:#000000"
       id="path3157-4-5"
       d="m 373.04644,638.00421 c 2.38715,0.0167 4.76535,0.001 7.14605,0.18684 1.94809,0.17305 3.90155,0.26211 5.85638,0.30462 1.81875,0.1007 3.6241,-0.16207 5.43445,-0.29608 1.71121,-0.11884 3.42572,-0.16241 5.14041,-0.18732 1.31142,-0.0113 2.62299,-0.0128 3.93446,-0.009 1.52575,0.095 3.02747,-0.075 4.53817,-0.25712 1.19723,-0.15376 2.4025,-0.2144 3.60828,-0.24245 1.03109,-0.24461 2.09061,-0.28 3.058,-0.73177 1.20429,-0.46384 2.36935,-1.01211 3.60698,-1.38977 1.33122,-0.52963 2.65777,-1.07627 4.02831,-1.49898 1.17868,-0.51119 2.33864,-1.06339 3.50081,-1.61131 1.16931,-0.56519 2.38693,-0.98015 3.62307,-1.37283 1.38408,-0.41507 2.73685,-0.9099 4.0907,-1.41416 1.08995,-0.29226 2.02454,-0.9444 3.03665,-1.41858 1.0761,-0.65865 2.31099,-0.96025 3.46633,-1.43936 1.1746,-0.36365 2.21758,-0.99857 3.29372,-1.56989 -10.32982,6.28394 -7.26695,4.27175 -5.10792,2.85568 0,0 6.98738,-2.74422 6.98738,-2.74422 l 0,0 c -2.43764,1.74311 -5.28654,2.82285 -7.71788,4.59002 -1.07205,0.59193 -2.19271,1.07733 -3.34509,1.4926 -1.17317,0.43196 -2.34187,0.8732 -3.43088,1.49594 -0.99415,0.52366 -1.99449,1.02969 -3.07677,1.3514 -1.35576,0.50902 -2.73965,0.93064 -4.11126,1.39385 -1.21559,0.41868 -2.41047,0.87657 -3.56946,1.43694 -1.17691,0.52808 -2.31536,1.15312 -3.55012,1.54179 -1.3542,0.47294 -2.67933,1.02317 -4.03036,1.50402 -1.21505,0.4386 -2.3853,0.98799 -3.6051,1.41427 -1.04478,0.28258 -2.12746,0.45309 -3.2051,0.5437 -1.18603,0.044 -2.36962,0.12981 -3.54781,0.27625 -1.53042,0.16715 -3.05959,0.2391 -4.59982,0.19547 -1.30625,0.002 -2.61254,-0.005 -3.91874,0.0114 -1.69687,0.0236 -3.39401,0.074 -5.08633,0.20665 -1.82726,0.15027 -3.6543,0.35959 -5.49094,0.23989 -1.95272,-0.0655 -3.90255,-0.17973 -5.84896,-0.35256 -2.38755,-0.16816 -4.77859,-0.1501 -7.17086,-0.10079 0,0 6.06325,-4.40521 6.06325,-4.40521 z"
       inkscape:connector-curvature="0" />
    <path
       style="fill:#000000"
       id="path3250"
       d="m 388.51662,390.85123 c 1.74032,0.0233 3.48097,0.0162 5.22141,0.0106 1.23869,-0.15723 2.46972,-0.35502 3.71534,-0.45125 1.05214,0.0177 2.05493,-0.29426 3.09423,-0.41165 1.25039,-0.0583 2.47098,-0.33499 3.71025,-0.49532 1.11566,-0.0403 2.1838,-0.35521 3.28341,-0.5179 0.99822,-0.20477 2.04194,-0.34626 3.01692,-0.65511 0.97873,-0.3979 2.02239,-0.61732 3.01378,-0.97519 1.00697,-0.31719 2.04087,-0.57115 3.02377,-0.95875 1.021,-0.31181 2.00519,-0.70385 3.05498,-0.91493 0.52467,-0.32481 1.1518,-0.35466 1.71901,-0.53934 0.12656,-0.0412 0.23937,-0.11645 0.35906,-0.17467 0.14683,-0.0427 0.29366,-0.0853 0.44049,-0.12798 0.99972,-0.0519 1.7697,-0.63947 2.67018,-0.98429 0.32555,-0.31518 0.77506,-0.39579 1.15942,-0.59345 0.37348,-0.19206 0.65517,-0.39827 1.06185,-0.53955 -0.60501,0.43895 2.23695,-1.20809 1.54164,-0.80361 -6.27583,3.65074 -7.49223,1.5713 -6.08043,3.80471 -0.33455,0.12904 -1.62373,-0.38677 -2.03753,-0.50331 -1.52912,-0.31241 -3.09998,-0.32724 -4.65449,-0.36555 -2.12225,-0.0352 -4.24492,-0.0279 -6.36737,-0.0253 -2.34232,0.002 -4.68463,-0.005 -7.02695,-0.003 -2.38846,0.003 -4.77692,0.002 -7.16538,0.003 -2.56772,-0.009 -5.13543,-0.006 -7.70316,-9.4e-4 -1.8961,-0.10734 -3.76854,0.17801 -5.65008,0.34843 -1.30532,0.0893 -2.59504,0.12292 -3.87987,0.36974 -1.26222,0.2615 -2.50359,0.55672 -3.79239,0.68494 -1.50139,0.15492 -2.98934,0.40881 -4.49675,0.52585 -1.2931,0.005 -2.50248,0.47382 -3.73756,0.79068 -1.71915,0.38971 -3.46622,0.56031 -5.22085,0.69391 -1.38785,0.14376 -2.79855,0.0116 -4.17532,0.23837 0,0 6.01098,-4.46948 6.01098,-4.46948 l 0,0 c 1.38136,-0.0817 2.76768,-0.0649 4.14704,-0.19093 1.74771,-0.15412 3.48723,-0.38237 5.18642,-0.83441 1.24475,-0.34306 2.49596,-0.64996 3.79624,-0.67487 1.50047,-0.15226 2.98816,-0.39616 4.48831,-0.55012 1.27493,-0.18648 2.51523,-0.52179 3.7873,-0.72311 1.28803,-0.18721 2.5927,-0.1641 3.88617,-0.30616 1.87902,-0.18321 3.75626,-0.34808 5.64749,-0.26001 2.56856,0.005 5.13711,0.008 7.70567,-9e-4 2.38665,6.8e-4 4.7733,-7.3e-4 7.15995,0.001 2.34909,9.1e-4 4.69814,-0.009 7.04722,-0.0121 2.12816,1.5e-4 4.25654,-0.003 6.38442,0.0372 1.61345,0.0434 3.25087,0.0716 4.8208,0.48654 0.90377,0.27679 1.93559,0.39465 2.52306,1.21373 0.0579,0.16394 0.31694,0.39336 0.17365,0.49182 -2.5812,1.77374 -5.33338,3.42951 -8.21825,4.70089 -0.73211,0.38724 -1.4651,0.7731 -2.21577,1.12294 -0.87857,0.41468 -1.76349,0.72005 -2.71348,0.933 -0.83551,0.30013 -1.70318,0.51867 -2.54849,0.78928 -1.01518,0.28135 -2.00398,0.65066 -3.00601,0.9749 -1.01296,0.31248 -2.02099,0.63922 -3.03647,0.9435 -1.02294,0.28912 -2.01102,0.67673 -3.04013,0.94304 -1.01727,0.2122 -2.02749,0.46258 -3.05851,0.59981 -1.09102,0.19772 -2.17657,0.40957 -3.2844,0.49469 -1.23694,0.18207 -2.46917,0.38896 -3.71532,0.50036 -1.03618,0.17278 -2.06552,0.36441 -3.12003,0.3841 -1.24173,0.12525 -2.47508,0.34566 -3.72474,0.37582 -1.75016,-0.006 -3.50052,-0.0125 -5.25058,0.0106 0,0 6.06985,-4.41 6.06985,-4.41 z"
       inkscape:connector-curvature="0" />
    <path
       style="fill:#000000"
       id="path3252"
       d="m 379.32657,395.43859 c -2.19148,0.42239 -4.416,0.59445 -6.64111,0.70978 -2.12757,0.0778 -4.25663,0.10546 -6.38545,0.12086 -0.82215,0.0725 -1.6666,-0.078 -2.48714,0.005 -0.31316,0.0319 -0.61505,0.13465 -0.92404,0.19476 -1.01689,0.32268 -2.00863,0.72024 -3.0368,1.00609 -0.68129,0.16992 -1.37696,0.19424 -2.05425,0.37437 0,0 5.97857,-4.53868 5.97857,-4.53868 l 0,0 c 0.67697,-0.11114 1.35951,-0.20625 2.01292,-0.42458 1.0226,-0.34223 2.04012,-0.72034 3.10014,-0.9313 1.14347,-0.16288 2.30048,-0.0557 3.45203,-0.0784 2.10571,0.002 4.21255,-0.006 6.31582,-0.11985 2.2297,-0.14037 4.45883,-0.35191 6.64315,-0.84157 0,0 -5.97384,4.52306 -5.97384,4.52306 z"
       inkscape:connector-curvature="0" />
    <path
       style="fill:#000000"
       id="path3256"
       d="m 360.68778,324.50011 c 1.64004,-0.41141 3.28578,-0.52449 4.96682,-0.46801 1.23645,0.127 2.40066,0.53575 3.59283,0.85086 0.99119,0.3948 2.02804,0.638 3.04859,0.94063 1.03893,0.23893 2.09362,0.35368 3.14049,0.55473 1.01382,0.34674 2.03123,0.67017 2.999,1.13334 0.8978,0.29311 1.57653,0.97324 2.40387,1.3912 0.80281,0.49508 1.53815,1.07016 2.24685,1.69252 0.89971,0.6283 1.62675,1.4596 2.53346,2.07515 0.78327,0.63541 1.64804,1.16306 2.434,1.79363 0.74859,0.53163 1.41652,1.16992 2.17389,1.69162 0.71669,0.72043 1.5745,1.26064 2.36764,1.88389 0.70028,0.65242 1.29083,1.36804 1.71857,2.22579 0.45921,0.93216 0.81241,1.91798 1.12122,2.9095 0.29019,0.94631 0.66414,1.85887 1.0019,2.78757 0.49727,1.35493 0.99969,2.70651 1.36673,4.10341 0.41308,1.23521 0.76954,2.48041 0.95911,3.76989 0.0573,1.05052 0.27511,2.07819 0.4126,3.11932 0.17406,1.2551 0.12729,2.52638 0.24936,3.78475 0.17563,1.34119 0.53318,2.64794 0.75287,3.98251 0.058,1.00041 0.31223,1.96332 0.50522,2.94123 0.11041,0.95277 0.23881,1.8948 0.41965,2.83721 0.11695,0.93676 0.26878,1.85411 0.49078,2.77118 0.22174,0.93149 0.27397,1.88886 0.30894,2.84203 0.015,0.5019 0.0175,1.00402 0.0207,1.50609 0,0 -6.68837,3.41193 -6.68837,3.41193 l 0,0 c -0.002,-0.4958 -0.003,-0.99164 -0.013,-1.48737 -0.0239,-0.90503 -0.0533,-1.81568 -0.24501,-2.70397 -0.21815,-0.93117 -0.41971,-1.84982 -0.49876,-2.80617 -0.17749,-0.94327 -0.36684,-1.87443 -0.42708,-2.83462 -0.17745,-0.99189 -0.47073,-1.95936 -0.495,-2.97464 -0.19426,-1.34927 -0.54352,-2.66347 -0.76925,-4.0056 -0.16733,-1.2514 -0.0744,-2.52268 -0.2451,-3.77648 -0.13097,-1.04211 -0.39539,-2.05991 -0.4184,-3.11307 -0.14942,-1.2696 -0.4728,-2.4976 -0.87999,-3.70904 -0.35143,-1.37676 -0.85518,-2.70223 -1.3824,-4.02021 -0.32635,-0.94542 -0.70999,-1.86776 -1.00987,-2.82327 -0.2812,-0.95684 -0.62925,-1.90326 -1.06927,-2.798 -0.36641,-0.75592 -0.9139,-1.37295 -1.53713,-1.9325 -0.80324,-0.5996 -1.60537,-1.19526 -2.35381,-1.86392 -0.74525,-0.5535 -1.44912,-1.15876 -2.1903,-1.71693 -0.79681,-0.60119 -1.63368,-1.14862 -2.41346,-1.77286 -0.88617,-0.67168 -1.67282,-1.46358 -2.56372,-2.13093 -0.68955,-0.57584 -1.41354,-1.09748 -2.18676,-1.55649 -0.77011,-0.47347 -1.48801,-1.03968 -2.35293,-1.3432 -0.93997,-0.39288 -1.90151,-0.74412 -2.89073,-0.9912 -1.06724,-0.19256 -2.1567,-0.27919 -3.19406,-0.61491 -1.0141,-0.30619 -2.04093,-0.56676 -3.03753,-0.9296 -1.13507,-0.32881 -2.2759,-0.66203 -3.46579,-0.71229 -1.65368,-0.0146 -3.2751,0.20866 -4.87789,0.62589 0,0 5.97055,-4.54059 5.97055,-4.54059 z"
       inkscape:connector-curvature="0" />
    <path
       style="fill:#000000"
       id="path3082-8"
       d="m 298.72665,450.23202 c -0.37966,1.34231 -0.85699,2.65297 -1.32471,3.96613 -0.50703,1.46019 -1.05541,2.90743 -1.7338,4.29711 -0.92287,1.72295 -1.65088,3.53774 -2.5046,5.29333 -0.94832,1.89759 -1.80927,3.84113 -2.78878,5.72301 -0.77042,1.3864 -1.43929,2.826 -2.19771,4.21886 -0.63665,1.15273 -1.32151,2.27656 -1.92892,3.44535 -0.51366,0.98852 -1.13663,1.92169 -1.83672,2.78742 -0.57445,0.70829 -1.04409,1.49231 -1.60006,2.2135 -0.55477,0.81348 -1.06765,1.64576 -1.52381,2.51769 0,0 4.59965,2.62905 4.59965,2.62905 l 0,0 c 0.43909,-0.84673 0.92349,-1.66059 1.47028,-2.44387 0.54718,-0.72464 1.04535,-1.48519 1.60116,-2.20385 0.69632,-0.90966 1.34143,-1.86378 1.86412,-2.88497 0.60921,-1.16482 1.28693,-2.28976 1.91856,-3.44235 0.75095,-1.40112 1.41421,-2.84666 2.17468,-4.24249 0.97447,-1.88973 1.80275,-3.85292 2.77615,-5.7439 0.86225,-1.75018 1.60914,-3.55522 2.53466,-5.27492 0.69606,-1.40296 1.26176,-2.86511 1.77926,-4.34271 0.4605,-1.31646 0.93216,-2.62837 1.36521,-3.95439 0,0 -4.64462,-2.558 -4.64462,-2.558 z"
       inkscape:connector-curvature="0" />
    <path
       style="fill:#000000"
       id="path3084-92"
       d="m 324.36091,486.71022 c -2.59299,0.0452 -5.18657,0.0484 -7.77989,0.0546 -3.81661,-0.0798 -7.62635,0.19609 -11.42856,0.49576 -3.65229,0.31653 -7.31582,0.45102 -10.97993,0.52346 -1.85787,0.0305 -3.71598,0.0259 -5.57395,0.0109 -0.9974,-0.002 -1.99479,-0.009 -2.99219,-0.009 -0.81617,0.0947 -1.53379,-0.11824 -2.2836,-0.39208 -0.52073,-0.40922 -1.13479,-0.55145 -1.77643,-0.63223 -0.59581,-0.2777 -1.24064,-0.32789 -1.88604,-0.36987 0,0 4.2631,3.15836 4.2631,3.15836 l 0,0 c 0.6384,0.0782 1.24279,0.25849 1.86476,0.41193 0.61432,0.14956 1.14755,0.44914 1.726,0.69185 0.77499,0.24388 1.56467,0.27874 2.37423,0.24394 0.99429,0.003 1.98859,7.3e-4 2.98287,0.001 1.8241,-0.0158 3.64808,-0.0485 5.4715,-0.10086 3.6557,-0.10827 7.3106,-0.26706 10.95572,-0.57414 3.80138,-0.2903 7.60917,-0.54577 11.42415,-0.45019 2.64346,0.006 5.28715,0.0102 7.93029,0.0546 0,0 -4.29203,-3.11835 -4.29203,-3.11835 z"
       inkscape:connector-curvature="0" />
    <path
       style="fill:#000000"
       id="path3082-0-0"
       d="m 300.03286,489.0022 c -0.37966,1.34231 -0.85699,2.65297 -1.32471,3.96613 -0.50703,1.46019 -1.05541,2.90743 -1.7338,4.29711 -0.92287,1.72295 -1.65088,3.53774 -2.5046,5.29333 -0.94832,1.89759 -1.80927,3.84113 -2.78878,5.72301 -0.77042,1.3864 -1.43929,2.826 -2.19771,4.21886 -0.63665,1.15273 -1.32151,2.27656 -1.92892,3.44535 -0.51366,0.98852 -1.13663,1.92169 -1.83672,2.78742 -0.57445,0.70829 -1.04409,1.49231 -1.60006,2.2135 -0.55477,0.81348 -1.06765,1.64576 -1.52381,2.51769 0,0 4.59965,2.62905 4.59965,2.62905 l 0,0 c 0.43909,-0.84673 0.92349,-1.66059 1.47028,-2.44387 0.54718,-0.72464 1.04535,-1.48519 1.60116,-2.20385 0.69632,-0.90966 1.34143,-1.86378 1.86412,-2.88497 0.60921,-1.16482 1.28693,-2.28976 1.91856,-3.44235 0.75095,-1.40112 1.41421,-2.84666 2.17468,-4.24249 0.97447,-1.88973 1.80275,-3.85292 2.77615,-5.7439 0.86225,-1.75018 1.60914,-3.55522 2.53466,-5.27492 0.69606,-1.40296 1.26176,-2.86511 1.77926,-4.34271 0.4605,-1.31646 0.93216,-2.62837 1.36521,-3.95439 0,0 -4.64462,-2.558 -4.64462,-2.558 z"
       inkscape:connector-curvature="0" />
    <path
       style="fill:#000000"
       id="path3084-5-1"
       d="m 325.66712,525.4804 c -2.59299,0.0452 -5.18657,0.0484 -7.77989,0.0546 -3.81661,-0.0798 -7.62635,0.19609 -11.42856,0.49576 -3.65229,0.31653 -7.31582,0.45102 -10.97993,0.52346 -1.85787,0.0305 -3.71598,0.0259 -5.57395,0.0109 -0.9974,-0.002 -1.99479,-0.009 -2.99219,-0.009 -0.81617,0.0947 -1.53379,-0.11824 -2.2836,-0.39208 -0.52073,-0.40922 -1.13479,-0.55145 -1.77643,-0.63223 -0.59581,-0.2777 -1.24064,-0.32789 -1.88604,-0.36987 0,0 4.2631,3.15836 4.2631,3.15836 l 0,0 c 0.6384,0.0782 1.24279,0.25849 1.86476,0.41193 0.61432,0.14956 1.14755,0.44914 1.726,0.69185 0.77499,0.24388 1.56467,0.27874 2.37423,0.24394 0.99429,0.003 1.98859,7.3e-4 2.98287,0.001 1.8241,-0.0158 3.64808,-0.0485 5.4715,-0.10086 3.6557,-0.10827 7.3106,-0.26706 10.95572,-0.57414 3.80138,-0.2903 7.60917,-0.54577 11.42415,-0.45019 2.64346,0.006 5.28715,0.0102 7.93029,0.0546 0,0 -4.29203,-3.11835 -4.29203,-3.11835 z"
       inkscape:connector-curvature="0" />
    <path
       style="fill:#000000"
       id="path3082-3-3"
       d="m 300.74715,527.21649 c -0.37966,1.34231 -0.85699,2.65297 -1.32471,3.96613 -0.50703,1.46019 -1.05541,2.90743 -1.7338,4.29711 -0.92287,1.72295 -1.65088,3.53774 -2.5046,5.29333 -0.94832,1.89759 -1.80927,3.84113 -2.78878,5.72301 -0.77042,1.3864 -1.43929,2.826 -2.19771,4.21886 -0.63665,1.15273 -1.32151,2.27656 -1.92892,3.44535 -0.51366,0.98852 -1.13663,1.92169 -1.83672,2.78742 -0.57445,0.70829 -1.04409,1.49231 -1.60006,2.2135 -0.55477,0.81348 -1.06765,1.64576 -1.52381,2.51769 0,0 4.59965,2.62905 4.59965,2.62905 l 0,0 c 0.43909,-0.84673 0.92349,-1.66059 1.47028,-2.44387 0.54718,-0.72464 1.04535,-1.48519 1.60116,-2.20385 0.69632,-0.90966 1.34143,-1.86378 1.86412,-2.88497 0.60921,-1.16482 1.28693,-2.28976 1.91856,-3.44235 0.75095,-1.40112 1.41421,-2.84666 2.17468,-4.24249 0.97447,-1.88973 1.80275,-3.85292 2.77615,-5.7439 0.86225,-1.75018 1.60914,-3.55522 2.53466,-5.27492 0.69606,-1.40296 1.26176,-2.86511 1.77926,-4.34271 0.4605,-1.31646 0.93216,-2.62837 1.36521,-3.95439 0,0 -4.64462,-2.558 -4.64462,-2.558 z"
       inkscape:connector-curvature="0" />
    <path
       style="fill:#000000"
       id="path3084-4-0"
       d="m 326.38141,563.69469 c -2.59299,0.0452 -5.18657,0.0484 -7.77989,0.0546 -3.81661,-0.0798 -7.62635,0.19609 -11.42856,0.49576 -3.65229,0.31653 -7.31582,0.45102 -10.97993,0.52346 -1.85787,0.0305 -3.71598,0.0259 -5.57395,0.0109 -0.9974,-0.002 -1.99479,-0.009 -2.99219,-0.009 -0.81617,0.0947 -1.53379,-0.11824 -2.2836,-0.39208 -0.52073,-0.40922 -1.13479,-0.55145 -1.77643,-0.63223 -0.59581,-0.2777 -1.24064,-0.32789 -1.88604,-0.36987 0,0 4.2631,3.15836 4.2631,3.15836 l 0,0 c 0.6384,0.0782 1.24279,0.25849 1.86476,0.41193 0.61432,0.14956 1.14755,0.44914 1.726,0.69185 0.77499,0.24388 1.56467,0.27874 2.37423,0.24394 0.99429,0.003 1.98859,7.3e-4 2.98287,0.001 1.8241,-0.0158 3.64808,-0.0485 5.4715,-0.10086 3.6557,-0.10827 7.3106,-0.26706 10.95572,-0.57414 3.80138,-0.2903 7.60917,-0.54577 11.42415,-0.45019 2.64346,0.006 5.28715,0.0102 7.93029,0.0546 0,0 -4.29203,-3.11835 -4.29203,-3.11835 z"
       inkscape:connector-curvature="0" />
    <path
       style="fill:#000000"
       id="path3082-7-7"
       d="m 300.63181,565.00501 c -0.37966,1.34231 -0.85699,2.65297 -1.32471,3.96613 -0.50703,1.46019 -1.05541,2.90743 -1.7338,4.29711 -0.92287,1.72295 -1.65088,3.53774 -2.5046,5.29333 -0.94832,1.89759 -1.80927,3.84113 -2.78878,5.72301 -0.77042,1.3864 -1.43929,2.826 -2.19771,4.21886 -0.63665,1.15273 -1.32151,2.27656 -1.92892,3.44535 -0.51366,0.98852 -1.13663,1.92169 -1.83672,2.78742 -0.57445,0.70829 -1.04409,1.49231 -1.60006,2.2135 -0.55477,0.81348 -1.06765,1.64576 -1.52381,2.51769 0,0 4.59965,2.62905 4.59965,2.62905 l 0,0 c 0.43909,-0.84673 0.92349,-1.66059 1.47028,-2.44387 0.54718,-0.72464 1.04535,-1.48519 1.60116,-2.20385 0.69632,-0.90966 1.34143,-1.86378 1.86412,-2.88497 0.60921,-1.16482 1.28693,-2.28976 1.91856,-3.44235 0.75095,-1.40112 1.41421,-2.84666 2.17468,-4.24249 0.97447,-1.88973 1.80275,-3.85292 2.77615,-5.7439 0.86225,-1.75018 1.60914,-3.55522 2.53466,-5.27492 0.69606,-1.40296 1.26176,-2.86511 1.77926,-4.34271 0.4605,-1.31646 0.93216,-2.62837 1.36521,-3.95439 0,0 -4.64462,-2.558 -4.64462,-2.558 z"
       inkscape:connector-curvature="0" />
    <path
       style="fill:#000000"
       id="path3084-9-4"
       d="m 326.26607,601.48321 c -2.59299,0.0452 -5.18657,0.0484 -7.77989,0.0546 -3.81661,-0.0798 -7.62635,0.19609 -11.42856,0.49576 -3.65229,0.31653 -7.31582,0.45102 -10.97993,0.52346 -1.85787,0.0305 -3.71598,0.0259 -5.57395,0.0109 -0.9974,-0.002 -1.99479,-0.009 -2.99219,-0.009 -0.81617,0.0947 -1.53379,-0.11824 -2.2836,-0.39208 -0.52073,-0.40922 -1.13479,-0.55145 -1.77643,-0.63223 -0.59581,-0.2777 -1.24064,-0.32789 -1.88604,-0.36987 0,0 4.2631,3.15836 4.2631,3.15836 l 0,0 c 0.6384,0.0782 1.24279,0.25849 1.86476,0.41193 0.61432,0.14956 1.14755,0.44914 1.726,0.69185 0.77499,0.24388 1.56467,0.27874 2.37423,0.24394 0.99429,0.003 1.98859,7.3e-4 2.98287,10e-4 1.8241,-0.0158 3.64808,-0.0485 5.4715,-0.10086 3.6557,-0.10827 7.3106,-0.26706 10.95572,-0.57414 3.80138,-0.2903 7.60917,-0.54577 11.42415,-0.45019 2.64346,0.006 5.28715,0.0102 7.93029,0.0546 0,0 -4.29203,-3.11835 -4.29203,-3.11835 z"
       inkscape:connector-curvature="0" />
    <path
       style="fill:#000000"
       id="path3082-9-9"
       d="m 297.60135,602.88573 c -0.37966,1.34231 -0.85699,2.65297 -1.32471,3.96613 -0.50703,1.46019 -1.05541,2.90743 -1.7338,4.29711 -0.92287,1.72295 -1.65088,3.53774 -2.5046,5.29333 -0.94832,1.89759 -1.80927,3.84113 -2.78878,5.72301 -0.77042,1.3864 -1.43929,2.826 -2.19771,4.21886 -0.63665,1.15273 -1.32151,2.27656 -1.92892,3.44535 -0.51366,0.98852 -1.13663,1.92169 -1.83672,2.78742 -0.57445,0.70829 -1.04409,1.49231 -1.60006,2.2135 -0.55477,0.81348 -1.06765,1.64576 -1.52381,2.51769 0,0 4.59965,2.62905 4.59965,2.62905 l 0,0 c 0.43909,-0.84673 0.92349,-1.66059 1.47028,-2.44387 0.54718,-0.72464 1.04535,-1.48519 1.60116,-2.20385 0.69632,-0.90966 1.34143,-1.86378 1.86412,-2.88497 0.60921,-1.16482 1.28693,-2.28976 1.91856,-3.44235 0.75095,-1.40112 1.41421,-2.84666 2.17468,-4.24249 0.97447,-1.88973 1.80275,-3.85292 2.77615,-5.7439 0.86225,-1.75018 1.60914,-3.55522 2.53466,-5.27492 0.69606,-1.40296 1.26176,-2.86511 1.77926,-4.34271 0.4605,-1.31646 0.93216,-2.62837 1.36521,-3.95439 0,0 -4.64462,-2.558 -4.64462,-2.558 z"
       inkscape:connector-curvature="0" />
    <path
       style="fill:#000000"
       id="path3084-7-8"
       d="m 323.23561,639.36393 c -2.59299,0.0452 -5.18657,0.0484 -7.77989,0.0546 -3.81661,-0.0798 -7.62635,0.19609 -11.42856,0.49576 -3.65229,0.31653 -7.31582,0.45102 -10.97993,0.52346 -1.85787,0.0305 -3.71598,0.0259 -5.57395,0.0109 -0.9974,-0.002 -1.99479,-0.009 -2.99219,-0.009 -0.81617,0.0947 -1.53379,-0.11824 -2.2836,-0.39208 -0.52073,-0.40922 -1.13479,-0.55145 -1.77643,-0.63223 -0.59581,-0.2777 -1.24064,-0.32789 -1.88604,-0.36987 0,0 4.2631,3.15836 4.2631,3.15836 l 0,0 c 0.6384,0.0782 1.24279,0.25849 1.86476,0.41193 0.61432,0.14956 1.14755,0.44914 1.726,0.69185 0.77499,0.24388 1.56467,0.27874 2.37423,0.24394 0.99429,0.003 1.98859,7.3e-4 2.98287,10e-4 1.8241,-0.0158 3.64808,-0.0485 5.4715,-0.10086 3.6557,-0.10827 7.3106,-0.26706 10.95572,-0.57414 3.80138,-0.2903 7.60917,-0.54577 11.42415,-0.45019 2.64346,0.006 5.28715,0.0102 7.93029,0.0546 0,0 -4.29203,-3.11835 -4.29203,-3.11835 z"
       inkscape:connector-curvature="0" />
    <path
       style="fill:#000000"
       id="path3157-9"
       d="m 363.54023,459.39734 c -2.38715,0.0167 -4.76535,0.001 -7.14604,0.18684 -1.9481,0.17305 -3.90155,0.26211 -5.85639,0.30462 -1.81875,0.1007 -3.62409,-0.16207 -5.43444,-0.29608 -1.71121,-0.11884 -3.42572,-0.16241 -5.14041,-0.18732 -1.31142,-0.0113 -2.62299,-0.0128 -3.93446,-0.009 -1.52575,0.095 -3.02747,-0.075 -4.53817,-0.25712 -1.19723,-0.15376 -2.4025,-0.2144 -3.60828,-0.24245 -1.03109,-0.24461 -2.09061,-0.28 -3.058,-0.73177 -1.20429,-0.46384 -2.36935,-1.01211 -3.60698,-1.38977 -1.33122,-0.52963 -2.65777,-1.07627 -4.02831,-1.49898 -1.17868,-0.51119 -2.33864,-1.06339 -3.50081,-1.61131 -1.16931,-0.56519 -2.38693,-0.98015 -3.62307,-1.37283 -1.38408,-0.41507 -2.73685,-0.9099 -4.0907,-1.41416 -1.08995,-0.29226 -2.02454,-0.9444 -3.03665,-1.41858 -1.0761,-0.65865 -2.31099,-0.96025 -3.46633,-1.43936 -1.1746,-0.36365 -2.21758,-0.99857 -3.29372,-1.56989 10.32982,6.28394 7.26695,4.27175 5.10792,2.85568 0,0 -6.98738,-2.74422 -6.98738,-2.74422 l 0,0 c 2.43764,1.74311 5.28654,2.82285 7.71788,4.59002 1.07205,0.59193 2.19271,1.07733 3.34509,1.4926 1.17317,0.43196 2.34187,0.8732 3.43088,1.49594 0.99415,0.52366 1.99449,1.02969 3.07677,1.3514 1.35576,0.50902 2.73965,0.93064 4.11126,1.39385 1.21559,0.41868 2.41047,0.87657 3.56946,1.43694 1.17691,0.52808 2.31536,1.15312 3.55012,1.54179 1.3542,0.47294 2.67933,1.02317 4.03036,1.50402 1.21505,0.4386 2.3853,0.98799 3.6051,1.41427 1.04478,0.28258 2.12746,0.45309 3.2051,0.5437 1.18603,0.044 2.36962,0.12981 3.54781,0.27625 1.53042,0.16715 3.05959,0.2391 4.59982,0.19547 1.30625,0.002 2.61254,-0.005 3.91873,0.0114 1.69688,0.0236 3.39401,0.074 5.08634,0.20665 1.82725,0.15027 3.6543,0.35959 5.49094,0.23989 1.95271,-0.0655 3.90254,-0.17973 5.84895,-0.35256 2.38756,-0.16816 4.77859,-0.1501 7.17086,-0.10079 0,0 -6.06325,-4.40521 -6.06325,-4.40521 z"
       inkscape:connector-curvature="0" />
    <path
       style="fill:#000000"
       id="path3157-4-9"
       d="m 370.98631,490.37528 c -2.38715,0.0167 -4.76535,0.001 -7.14605,0.18684 -1.94809,0.17305 -3.90155,0.26211 -5.85638,0.30462 -1.81875,0.1007 -3.6241,-0.16207 -5.43445,-0.29608 -1.71121,-0.11884 -3.42572,-0.16241 -5.14041,-0.18732 -1.31142,-0.0113 -2.62299,-0.0128 -3.93446,-0.009 -1.52575,0.095 -3.02747,-0.075 -4.53817,-0.25712 -1.19723,-0.15376 -2.4025,-0.2144 -3.60828,-0.24245 -1.03109,-0.24461 -2.09061,-0.28 -3.058,-0.73177 -1.20429,-0.46384 -2.36935,-1.01211 -3.60698,-1.38977 -1.33122,-0.52963 -2.65777,-1.07627 -4.02831,-1.49898 -1.17868,-0.51119 -2.33864,-1.06339 -3.50081,-1.61131 -1.16931,-0.56519 -2.38693,-0.98015 -3.62307,-1.37283 -1.38408,-0.41507 -2.73685,-0.9099 -4.0907,-1.41416 -1.08995,-0.29226 -2.02454,-0.9444 -3.03665,-1.41858 -1.0761,-0.65865 -2.31099,-0.96025 -3.46633,-1.43936 -1.1746,-0.36365 -2.21758,-0.99857 -3.29372,-1.56989 10.32982,6.28394 7.26695,4.27175 5.10792,2.85568 0,0 -6.98738,-2.74422 -6.98738,-2.74422 l 0,0 c 2.43764,1.74311 5.28654,2.82285 7.71788,4.59002 1.07205,0.59193 2.19271,1.07733 3.34509,1.4926 1.17317,0.43196 2.34187,0.8732 3.43088,1.49594 0.99415,0.52366 1.99449,1.02969 3.07677,1.3514 1.35576,0.50902 2.73965,0.93064 4.11126,1.39385 1.21559,0.41868 2.41047,0.87657 3.56946,1.43694 1.17691,0.52808 2.31536,1.15312 3.55012,1.54179 1.3542,0.47294 2.67933,1.02317 4.03036,1.50402 1.21505,0.4386 2.3853,0.98799 3.6051,1.41427 1.04478,0.28258 2.12746,0.45309 3.2051,0.5437 1.18603,0.044 2.36962,0.12981 3.54781,0.27625 1.53042,0.16715 3.05959,0.2391 4.59982,0.19547 1.30625,0.002 2.61254,-0.005 3.91874,0.0114 1.69687,0.0236 3.39401,0.074 5.08633,0.20665 1.82726,0.15027 3.6543,0.35959 5.49094,0.23989 1.95272,-0.0655 3.90254,-0.17973 5.84895,-0.35256 2.38756,-0.16816 4.7786,-0.1501 7.17087,-0.10079 0,0 -6.06325,-4.40521 -6.06325,-4.40521 z"
       inkscape:connector-curvature="0" />
    <path
       style="fill:#000000"
       id="path3157-4-4-5"
       d="m 369.47108,526.2357 c -2.38715,0.0167 -4.76535,0.001 -7.14605,0.18684 -1.94809,0.17305 -3.90155,0.26211 -5.85638,0.30462 -1.81875,0.1007 -3.6241,-0.16207 -5.43445,-0.29608 -1.71121,-0.11884 -3.42572,-0.16241 -5.14041,-0.18732 -1.31141,-0.0113 -2.62298,-0.0128 -3.93445,-0.009 -1.52575,0.095 -3.02747,-0.075 -4.53817,-0.25712 -1.19723,-0.15376 -2.4025,-0.2144 -3.60828,-0.24245 -1.03109,-0.24461 -2.09061,-0.28 -3.058,-0.73177 -1.20429,-0.46384 -2.36935,-1.01211 -3.60698,-1.38977 -1.33122,-0.52963 -2.65777,-1.07627 -4.02831,-1.49898 -1.17868,-0.51119 -2.33864,-1.06339 -3.50081,-1.61131 -1.16931,-0.56519 -2.38693,-0.98015 -3.62307,-1.37283 -1.38408,-0.41507 -2.73685,-0.9099 -4.0907,-1.41416 -1.08995,-0.29226 -2.02454,-0.9444 -3.03665,-1.41858 -1.0761,-0.65865 -2.31099,-0.96025 -3.46633,-1.43936 -1.1746,-0.36365 -2.21758,-0.99857 -3.29372,-1.56989 10.32982,6.28394 7.26695,4.27175 5.10792,2.85568 0,0 -6.98738,-2.74422 -6.98738,-2.74422 l 0,0 c 2.43764,1.74311 5.28654,2.82285 7.71788,4.59002 1.07205,0.59193 2.19271,1.07733 3.34509,1.4926 1.17317,0.43196 2.34187,0.8732 3.43088,1.49594 0.99415,0.52366 1.99449,1.02969 3.07677,1.3514 1.35576,0.50902 2.73965,0.93064 4.11126,1.39385 1.21559,0.41868 2.41047,0.87657 3.56946,1.43694 1.17691,0.52808 2.31536,1.15312 3.55012,1.54179 1.3542,0.47294 2.67933,1.02317 4.03036,1.50402 1.21505,0.4386 2.3853,0.98799 3.6051,1.41427 1.04478,0.28258 2.12746,0.45309 3.2051,0.5437 1.18603,0.044 2.36962,0.12981 3.54781,0.27625 1.53042,0.16715 3.05958,0.2391 4.59981,0.19547 1.30625,0.002 2.61254,-0.005 3.91874,0.0114 1.69687,0.0236 3.39401,0.074 5.08633,0.20665 1.82726,0.15027 3.6543,0.35959 5.49094,0.23989 1.95272,-0.0655 3.90255,-0.17973 5.84896,-0.35256 2.38755,-0.16816 4.77859,-0.1501 7.17086,-0.10079 0,0 -6.06325,-4.40521 -6.06325,-4.40521 z"
       inkscape:connector-curvature="0" />
    <path
       style="fill:#000000"
       id="path3157-4-0-2"
       d="m 367.95585,565.63164 c -2.38714,0.0167 -4.76534,0.001 -7.14604,0.18684 -1.94809,0.17305 -3.90155,0.26211 -5.85638,0.30462 -1.81875,0.1007 -3.6241,-0.16207 -5.43445,-0.29608 -1.71121,-0.11884 -3.42572,-0.16241 -5.14041,-0.18732 -1.31142,-0.0113 -2.62299,-0.0128 -3.93446,-0.009 -1.52575,0.095 -3.02747,-0.075 -4.53817,-0.25712 -1.19723,-0.15376 -2.4025,-0.2144 -3.60828,-0.24245 -1.03109,-0.24461 -2.09061,-0.28 -3.058,-0.73177 -1.20429,-0.46384 -2.36935,-1.01211 -3.60698,-1.38977 -1.33122,-0.52963 -2.65777,-1.07627 -4.02831,-1.49898 -1.17868,-0.51119 -2.33864,-1.06339 -3.50081,-1.61131 -1.16931,-0.56519 -2.38693,-0.98015 -3.62307,-1.37283 -1.38408,-0.41507 -2.73685,-0.9099 -4.0907,-1.41416 -1.08995,-0.29226 -2.02454,-0.9444 -3.03665,-1.41858 -1.0761,-0.65865 -2.31099,-0.96025 -3.46633,-1.43936 -1.1746,-0.36365 -2.21758,-0.99857 -3.29372,-1.56989 10.32982,6.28394 7.26695,4.27175 5.10792,2.85568 0,0 -6.98738,-2.74422 -6.98738,-2.74422 l 0,0 c 2.43764,1.74311 5.28654,2.82285 7.71788,4.59002 1.07205,0.59193 2.19271,1.07733 3.34509,1.4926 1.17317,0.43196 2.34187,0.8732 3.43088,1.49594 0.99415,0.52366 1.99449,1.02969 3.07677,1.3514 1.35576,0.50902 2.73965,0.93064 4.11126,1.39385 1.21559,0.41868 2.41047,0.87657 3.56946,1.43694 1.17691,0.52808 2.31536,1.15312 3.55012,1.54179 1.3542,0.47294 2.67933,1.02317 4.03036,1.50402 1.21505,0.4386 2.3853,0.98799 3.6051,1.41427 1.04478,0.28258 2.12746,0.45309 3.2051,0.5437 1.18603,0.044 2.36962,0.12981 3.54781,0.27625 1.53042,0.16715 3.05959,0.2391 4.59982,0.19547 1.30625,0.002 2.61254,-0.005 3.91874,0.0114 1.69687,0.0236 3.39401,0.074 5.08633,0.20665 1.82726,0.15027 3.6543,0.35959 5.49094,0.23989 1.95272,-0.0655 3.90254,-0.17973 5.84895,-0.35256 2.38756,-0.16816 4.7786,-0.1501 7.17086,-0.10079 0,0 -6.06325,-4.40521 -6.06325,-4.40521 z"
       inkscape:connector-curvature="0" />
    <path
       style="fill:#000000"
       id="path3157-4-02-5"
       d="m 364.92539,601.49205 c -2.38714,0.0167 -4.76534,0.001 -7.14604,0.18684 -1.94809,0.17305 -3.90155,0.26211 -5.85638,0.30462 -1.81875,0.1007 -3.6241,-0.16207 -5.43445,-0.29608 -1.71121,-0.11884 -3.42572,-0.16241 -5.14041,-0.18732 -1.31142,-0.0113 -2.623,-0.0128 -3.93447,-0.009 -1.52575,0.095 -3.02747,-0.075 -4.53817,-0.25712 -1.19723,-0.15376 -2.4025,-0.2144 -3.60828,-0.24245 -1.03109,-0.24461 -2.09061,-0.28 -3.058,-0.73177 -1.20429,-0.46384 -2.36935,-1.01211 -3.60698,-1.38977 -1.33122,-0.52963 -2.65777,-1.07627 -4.02831,-1.49898 -1.17868,-0.51119 -2.33864,-1.06339 -3.50081,-1.61131 -1.16931,-0.56519 -2.38693,-0.98015 -3.62307,-1.37283 -1.38408,-0.41507 -2.73685,-0.9099 -4.0907,-1.41416 -1.08995,-0.29226 -2.02454,-0.9444 -3.03665,-1.41858 -1.0761,-0.65865 -2.31099,-0.96025 -3.46633,-1.43936 -1.1746,-0.36365 -2.21758,-0.99857 -3.29372,-1.56989 10.32982,6.28394 7.26695,4.27175 5.10792,2.85568 0,0 -6.98738,-2.74422 -6.98738,-2.74422 l 0,0 c 2.43764,1.74311 5.28654,2.82285 7.71788,4.59002 1.07205,0.59193 2.19271,1.07733 3.34509,1.4926 1.17317,0.43196 2.34187,0.8732 3.43088,1.49594 0.99415,0.52366 1.99449,1.02969 3.07677,1.3514 1.35576,0.50902 2.73965,0.93064 4.11126,1.39385 1.21559,0.41868 2.41047,0.87657 3.56946,1.43694 1.17691,0.52808 2.31536,1.15312 3.55012,1.54179 1.3542,0.47294 2.67933,1.02317 4.03036,1.50402 1.21505,0.4386 2.3853,0.98799 3.6051,1.41427 1.04478,0.28258 2.12746,0.45309 3.2051,0.5437 1.18603,0.044 2.36962,0.12981 3.54781,0.27625 1.53043,0.16715 3.0596,0.2391 4.59983,0.19547 1.30625,0.002 2.61254,-0.005 3.91874,0.0114 1.69687,0.0236 3.39401,0.074 5.08633,0.20665 1.82726,0.15027 3.6543,0.35959 5.49094,0.23989 1.95272,-0.0655 3.90254,-0.17973 5.84895,-0.35256 2.38756,-0.16816 4.7786,-0.1501 7.17087,-0.10079 0,0 -6.06326,-4.40521 -6.06326,-4.40521 z"
       inkscape:connector-curvature="0" />
    <path
       style="fill:#000000"
       id="path3157-4-5-5"
       d="m 359.87463,638.36263 c -2.38715,0.0167 -4.76535,10e-4 -7.14605,0.18684 -1.94809,0.17305 -3.90155,0.26211 -5.85638,0.30462 -1.81875,0.1007 -3.6241,-0.16207 -5.43445,-0.29608 -1.71121,-0.11884 -3.42572,-0.16241 -5.14041,-0.18732 -1.31142,-0.0113 -2.62299,-0.0128 -3.93446,-0.009 -1.52575,0.095 -3.02747,-0.075 -4.53817,-0.25712 -1.19723,-0.15376 -2.4025,-0.2144 -3.60828,-0.24245 -1.03109,-0.24461 -2.09061,-0.28 -3.058,-0.73177 -1.20429,-0.46384 -2.36935,-1.01211 -3.60698,-1.38977 -1.33122,-0.52963 -2.65777,-1.07627 -4.02831,-1.49898 -1.17868,-0.51119 -2.33864,-1.06339 -3.50081,-1.61131 -1.16931,-0.56519 -2.38693,-0.98015 -3.62307,-1.37283 -1.38408,-0.41507 -2.73685,-0.9099 -4.0907,-1.41416 -1.08995,-0.29226 -2.02454,-0.9444 -3.03665,-1.41858 -1.0761,-0.65865 -2.31099,-0.96025 -3.46633,-1.43936 -1.1746,-0.36365 -2.21758,-0.99857 -3.29372,-1.56989 10.32982,6.28394 7.26695,4.27175 5.10792,2.85568 0,0 -6.98738,-2.74422 -6.98738,-2.74422 l 0,0 c 2.43764,1.74311 5.28654,2.82285 7.71788,4.59002 1.07205,0.59193 2.19271,1.07733 3.34509,1.4926 1.17317,0.43196 2.34187,0.8732 3.43088,1.49594 0.99415,0.52366 1.99449,1.02969 3.07677,1.3514 1.35576,0.50902 2.73965,0.93064 4.11126,1.39385 1.21559,0.41868 2.41047,0.87657 3.56946,1.43694 1.17691,0.52808 2.31536,1.15312 3.55012,1.54179 1.3542,0.47294 2.67933,1.02317 4.03036,1.50402 1.21505,0.4386 2.3853,0.98799 3.6051,1.41427 1.04478,0.28258 2.12746,0.45309 3.2051,0.5437 1.18603,0.044 2.36962,0.12981 3.54781,0.27625 1.53042,0.16715 3.05959,0.2391 4.59982,0.19547 1.30625,0.002 2.61254,-0.005 3.91874,0.0114 1.69687,0.0236 3.39401,0.074 5.08633,0.20665 1.82726,0.15027 3.6543,0.35959 5.49094,0.23989 1.95272,-0.0655 3.90255,-0.17973 5.84896,-0.35256 2.38755,-0.16816 4.77859,-0.1501 7.17086,-0.10079 0,0 -6.06325,-4.40521 -6.06325,-4.40521 z"
       inkscape:connector-curvature="0" />
    <path
       style="fill:#000000"
       id="path3250-4"
       d="m 344.40445,391.20964 c -1.74032,0.0233 -3.48097,0.0162 -5.22141,0.0106 -1.23869,-0.15723 -2.46972,-0.35502 -3.71534,-0.45125 -1.05214,0.0177 -2.05493,-0.29426 -3.09423,-0.41165 -1.25039,-0.0583 -2.47098,-0.33499 -3.71025,-0.49532 -1.11566,-0.0403 -2.1838,-0.35521 -3.28341,-0.5179 -0.99822,-0.20477 -2.04194,-0.34626 -3.01692,-0.65511 -0.97873,-0.3979 -2.02239,-0.61732 -3.01378,-0.97519 -1.00697,-0.31719 -2.04087,-0.57115 -3.02377,-0.95875 -1.021,-0.31181 -2.00519,-0.70385 -3.05498,-0.91493 -0.52467,-0.32481 -1.1518,-0.35466 -1.71901,-0.53934 -0.12656,-0.0412 -0.23937,-0.11645 -0.35906,-0.17467 -0.14683,-0.0427 -0.29366,-0.0853 -0.44049,-0.12798 -0.99972,-0.0519 -1.7697,-0.63947 -2.67018,-0.98429 -0.32555,-0.31518 -0.77506,-0.39579 -1.15942,-0.59345 -0.37348,-0.19206 -0.65517,-0.39827 -1.06185,-0.53955 0.60501,0.43895 -2.23695,-1.20809 -1.54164,-0.80361 6.27583,3.65074 7.49223,1.5713 6.08043,3.80471 0.33455,0.12904 1.62373,-0.38677 2.03753,-0.50331 1.52912,-0.31241 3.09998,-0.32724 4.65449,-0.36555 2.12225,-0.0352 4.24492,-0.0279 6.36737,-0.0253 2.34232,0.002 4.68463,-0.005 7.02695,-0.003 2.38846,0.003 4.77692,0.002 7.16538,0.003 2.56772,-0.009 5.13543,-0.006 7.70316,-9.4e-4 1.8961,-0.10734 3.76854,0.17801 5.65008,0.34843 1.30532,0.0893 2.59504,0.12292 3.87987,0.36974 1.26222,0.2615 2.50359,0.55672 3.79239,0.68494 1.50139,0.15492 2.98934,0.40881 4.49675,0.52585 1.2931,0.005 2.50248,0.47382 3.73756,0.79068 1.71915,0.38971 3.46622,0.56031 5.22085,0.69391 1.38785,0.14376 2.79855,0.0116 4.17532,0.23837 0,0 -6.01098,-4.46948 -6.01098,-4.46948 l 0,0 c -1.38136,-0.0817 -2.76768,-0.0649 -4.14704,-0.19093 -1.74771,-0.15412 -3.48723,-0.38237 -5.18642,-0.83441 -1.24475,-0.34306 -2.49596,-0.64996 -3.79624,-0.67487 -1.50047,-0.15226 -2.98816,-0.39616 -4.48831,-0.55012 -1.27493,-0.18648 -2.51523,-0.52179 -3.7873,-0.72311 -1.28803,-0.18721 -2.5927,-0.1641 -3.88617,-0.30616 -1.87902,-0.18321 -3.75626,-0.34808 -5.64749,-0.26001 -2.56856,0.005 -5.13711,0.008 -7.70567,-9e-4 -2.38665,6.8e-4 -4.7733,-7.3e-4 -7.15995,0.001 -2.34909,9.1e-4 -4.69814,-0.009 -7.04722,-0.0121 -2.12816,1.5e-4 -4.25654,-0.003 -6.38442,0.0372 -1.61345,0.0434 -3.25087,0.0716 -4.8208,0.48654 -0.90377,0.27679 -1.93559,0.39465 -2.52306,1.21373 -0.0579,0.16394 -0.31694,0.39336 -0.17365,0.49182 2.5812,1.77374 5.33338,3.42951 8.21825,4.70089 0.73211,0.38724 1.4651,0.7731 2.21577,1.12294 0.87857,0.41468 1.76349,0.72005 2.71348,0.933 0.83551,0.30013 1.70318,0.51867 2.54849,0.78928 1.01518,0.28135 2.00398,0.65066 3.00601,0.9749 1.01296,0.31248 2.02099,0.63922 3.03647,0.9435 1.02294,0.28912 2.01102,0.67673 3.04013,0.94304 1.01727,0.2122 2.02749,0.46258 3.05851,0.59981 1.09102,0.19772 2.17657,0.40957 3.2844,0.49469 1.23694,0.18207 2.46917,0.38896 3.71532,0.50036 1.03618,0.17278 2.06552,0.36441 3.12003,0.3841 1.24173,0.12525 2.47508,0.34566 3.72474,0.37582 1.75016,-0.006 3.50052,-0.0125 5.25058,0.0106 0,0 -6.06985,-4.41 -6.06985,-4.41 z"
       inkscape:connector-curvature="0" />
    <path
       style="fill:#000000"
       id="path3252-2"
       d="m 353.5945,395.797 c 2.19148,0.42239 4.416,0.59445 6.64111,0.70978 2.12757,0.0778 4.25663,0.10546 6.38545,0.12086 0.82215,0.0725 1.6666,-0.078 2.48714,0.005 0.31316,0.0319 0.61505,0.13465 0.92404,0.19476 1.01689,0.32268 2.00863,0.72024 3.0368,1.00609 0.68129,0.16992 1.37696,0.19424 2.05425,0.37437 0,0 -5.97857,-4.53868 -5.97857,-4.53868 l 0,0 c -0.67697,-0.11114 -1.35951,-0.20625 -2.01292,-0.42458 -1.0226,-0.34223 -2.04012,-0.72034 -3.10014,-0.9313 -1.14347,-0.16288 -2.30048,-0.0557 -3.45203,-0.0784 -2.10571,0.002 -4.21255,-0.006 -6.31582,-0.11985 -2.2297,-0.14037 -4.45883,-0.35191 -6.64315,-0.84157 0,0 5.97384,4.52306 5.97384,4.52306 z"
       inkscape:connector-curvature="0" />
    <path
       style="fill:#000000"
       id="path3256-7"
       d="m 372.23329,324.85852 c -1.64004,-0.41141 -3.28578,-0.52449 -4.96682,-0.46801 -1.23645,0.127 -2.40066,0.53575 -3.59283,0.85086 -0.99119,0.3948 -2.02804,0.638 -3.04859,0.94063 -1.03893,0.23893 -2.09362,0.35368 -3.14049,0.55473 -1.01382,0.34674 -2.03123,0.67017 -2.999,1.13334 -0.8978,0.29311 -1.57653,0.97324 -2.40387,1.3912 -0.80281,0.49508 -1.53815,1.07016 -2.24685,1.69252 -0.89971,0.6283 -1.62675,1.4596 -2.53346,2.07515 -0.78327,0.63541 -1.64804,1.16306 -2.434,1.79363 -0.74859,0.53163 -1.41652,1.16992 -2.17389,1.69162 -0.71669,0.72043 -1.5745,1.26064 -2.36764,1.88389 -0.70028,0.65242 -1.29083,1.36804 -1.71857,2.22579 -0.45921,0.93216 -0.81241,1.91798 -1.12122,2.9095 -0.29019,0.94631 -0.66414,1.85887 -1.0019,2.78757 -0.49727,1.35493 -0.99969,2.70651 -1.36673,4.10341 -0.41308,1.23521 -0.76954,2.48041 -0.95911,3.76989 -0.0573,1.05052 -0.27511,2.07819 -0.4126,3.11932 -0.17406,1.2551 -0.12729,2.52638 -0.24936,3.78475 -0.17563,1.34119 -0.53318,2.64794 -0.75287,3.98251 -0.058,1.00041 -0.31223,1.96332 -0.50522,2.94123 -0.11041,0.95277 -0.23881,1.8948 -0.41965,2.83721 -0.11695,0.93676 -0.26878,1.85411 -0.49078,2.77118 -0.22174,0.93149 -0.27397,1.88886 -0.30894,2.84203 -0.015,0.5019 -0.0175,1.00402 -0.0207,1.50609 0,0 6.68837,3.41193 6.68837,3.41193 l 0,0 c 0.002,-0.4958 0.003,-0.99164 0.013,-1.48737 0.0239,-0.90503 0.0533,-1.81568 0.24501,-2.70397 0.21815,-0.93117 0.41971,-1.84982 0.49876,-2.80617 0.17749,-0.94327 0.36684,-1.87443 0.42708,-2.83462 0.17745,-0.99189 0.47073,-1.95936 0.495,-2.97464 0.19426,-1.34927 0.54352,-2.66347 0.76925,-4.0056 0.16733,-1.2514 0.0744,-2.52268 0.2451,-3.77648 0.13097,-1.04211 0.39539,-2.05991 0.4184,-3.11307 0.14942,-1.2696 0.4728,-2.4976 0.87999,-3.70904 0.35143,-1.37676 0.85518,-2.70223 1.3824,-4.02021 0.32635,-0.94542 0.70999,-1.86776 1.00987,-2.82327 0.2812,-0.95684 0.62925,-1.90326 1.06927,-2.798 0.36641,-0.75592 0.9139,-1.37295 1.53713,-1.9325 0.80324,-0.5996 1.60537,-1.19526 2.35381,-1.86392 0.74525,-0.5535 1.44912,-1.15876 2.1903,-1.71693 0.79681,-0.60119 1.63368,-1.14862 2.41346,-1.77286 0.88617,-0.67168 1.67282,-1.46358 2.56372,-2.13093 0.68955,-0.57584 1.41354,-1.09748 2.18676,-1.55649 0.77011,-0.47347 1.48801,-1.03968 2.35293,-1.3432 0.93997,-0.39288 1.90151,-0.74412 2.89073,-0.9912 1.06724,-0.19256 2.1567,-0.27919 3.19406,-0.61491 1.0141,-0.30619 2.04093,-0.56676 3.03753,-0.9296 1.13507,-0.32881 2.2759,-0.66203 3.46579,-0.71229 1.65368,-0.0146 3.2751,0.20866 4.87789,0.62589 0,0 -5.97055,-4.54059 -5.97055,-4.54059 z"
       inkscape:connector-curvature="0" />
    <path
       style="fill:#000000"
       id="path3333"
       d="m 314.18414,382.63432 c -2.33511,-0.0404 -4.67081,-0.0333 -7.00617,-0.0228 -1.60371,0.13978 -3.19836,0.35744 -4.80614,0.45041 -1.50659,0.066 -3.01484,0.0671 -4.52254,0.0726 -1.37343,-10e-4 -2.74685,0.002 -4.12027,0.004 -1.06732,-0.0804 -2.0649,0.0519 -3.08195,0.36368 -1.99018,0.36578 -3.94737,0.85447 -5.90475,1.36467 -0.8608,0.27674 -1.78551,0.31374 -2.62498,0.66417 -0.18925,0.079 -0.71747,0.3976 -0.53918,0.29627 6.1757,-3.50998 7.7974,-4.86039 5.69235,-3.1461 -0.5633,0.65649 -0.4987,1.42317 -0.35,2.21206 0.12156,0.70109 0.33889,1.45225 0.8975,1.92547 0.76374,0.77894 1.76161,1.12929 2.7194,1.60145 1.34412,0.67368 2.76345,1.17119 4.14976,1.75391 1.56337,0.57855 3.19702,0.90661 4.82841,1.22745 2.01845,0.28362 4.03182,0.60415 6.06255,0.79063 1.90996,0.15744 3.8271,0.17746 5.74231,0.1915 1.51322,0.003 3.02641,-0.007 4.53962,-0.007 1.38016,-4.1e-4 2.76032,-0.004 4.14048,-0.007 1.24774,-0.002 2.49549,0.001 3.74324,0.001 1.50857,-0.001 3.01712,0.008 4.52569,0.007 1.61745,-5.9e-4 3.2349,-3.1e-4 4.85235,-0.003 1.5556,-0.002 3.11121,8.9e-4 4.66682,0.002 1.51625,-0.0867 3.00126,0.0538 4.49875,0.26242 1.05728,0.15439 2.12484,0.1997 3.19162,0.22302 1.2702,0.0735 2.52789,0.30828 3.80021,0.41072 1.38367,0.0868 2.74525,0.36791 4.12572,0.50487 1.05607,0.093 2.11682,0.10073 3.17616,0.106 0.95832,0.004 1.91665,0.002 2.87498,0.004 0,0 -6.05889,4.40311 -6.05889,4.40311 l 0,0 c -0.96475,0.004 -1.92958,0.007 -2.89431,-3e-5 -1.07175,-0.0165 -2.14475,-0.0469 -3.21004,-0.17538 -1.36838,-0.171 -2.72645,-0.43477 -4.10655,-0.49788 -1.26476,-0.12426 -2.52138,-0.35707 -3.79497,-0.36122 -1.07947,-0.0443 -2.15662,-0.1283 -3.22476,-0.29631 -1.46773,-0.19928 -2.93622,-0.23734 -4.41726,-0.19502 -1.55766,10e-4 -3.11531,0.005 -4.67296,0.002 -1.61482,-0.003 -3.22964,-0.002 -4.84445,-0.003 -1.51525,-9.5e-4 -3.03048,0.009 -4.54574,0.007 -1.24914,2.4e-4 -2.49829,0.003 -3.74744,0.002 -1.37605,-0.003 -2.75211,-0.004 -4.12816,-6.6e-4 -1.50817,0.004 -3.01637,0.004 -4.52447,-0.014 -1.92295,-0.0233 -3.84776,-0.07 -5.76296,-0.25703 -2.04771,-0.21204 -4.08686,-0.5165 -6.11883,-0.84339 -1.67224,-0.34539 -3.3544,-0.68196 -4.94023,-1.33553 -1.38926,-0.60067 -2.82683,-1.08193 -4.17366,-1.77781 -1.04123,-0.48557 -2.0631,-0.95963 -2.88288,-1.792 -0.59655,-0.64569 -0.98649,-1.44019 -1.11877,-2.31566 -0.19923,-0.95945 -0.34662,-1.87577 0.0674,-2.8128 2.02497,-3.48974 6.64533,-4.38234 10.28057,-5.27315 1.97907,-0.51021 3.97335,-0.94239 5.96311,-1.40728 1.05885,-0.22354 2.11297,-0.25758 3.19448,-0.2116 1.36682,0.005 2.73366,0.0124 4.10048,0.005 1.50029,-0.007 3.0019,-0.0166 4.49955,-0.11468 1.59719,-0.12406 3.18782,-0.34003 4.79068,-0.37668 2.35629,0.0107 4.71289,0.0169 7.06896,-0.0228 0,0 -6.06985,4.41 -6.06985,4.41 z"
       inkscape:connector-curvature="0" />
    <path
       style="fill:#000000"
       id="path3335"
       d="m 405.72407,378.64139 c 2.27776,-0.2199 4.54461,-0.53452 6.82668,-0.72936 2.04045,-0.15521 4.08774,-0.17187 6.13298,-0.17706 1.93046,-0.0176 3.84946,0.2495 5.77367,0.38146 1.69361,0.10327 3.39092,0.11156 5.08705,0.12184 1.88363,0.007 3.7673,0.009 5.65094,0.003 1.54705,-0.0106 3.07908,0.26194 4.62058,0.38179 1.3199,-0.008 2.60759,0.20936 3.91058,0.37963 1.41972,0.17413 2.85119,0.20731 4.27977,0.22965 1.29745,-0.0832 2.50581,0.38438 3.74473,0.67615 1.24568,0.20582 2.49444,0.28013 3.73418,0.5192 1.01551,0.0678 1.89417,0.41461 2.77607,0.88522 0.7214,0.24744 1.24124,0.82893 1.91658,1.15708 0.80956,0.50609 1.07415,1.3631 1.2361,2.25121 0.11894,1.17466 -0.29348,2.2004 -0.93042,3.1598 -2.51726,2.71024 -6.13785,4.20947 -9.54148,5.58338 -1.33167,0.49678 -2.66997,0.97273 -3.9978,1.48329 -1.68901,0.59437 -3.49036,0.60491 -5.24564,0.8335 -1.75934,0.23868 -3.52902,0.3813 -5.30274,0.44692 -1.84843,0.0412 -3.69757,0.0316 -5.54633,0.0285 -2.25932,-0.004 -4.51865,-0.009 -6.77798,-0.01 -2.11609,-0.002 -4.23216,0.006 -6.34824,0.008 -1.83564,0.0381 -3.66252,0.2749 -5.49694,0.38586 -1.79399,0.0918 -3.59051,0.11112 -5.38644,0.12759 -1.36086,-0.006 -2.70334,0.28781 -4.02735,0.57598 -1.39601,0.30572 -2.82758,0.37124 -4.25137,0.41291 -1.4846,0.06 -2.95669,0.29899 -4.43936,0.42048 -1.18276,0.12785 -2.38583,0.31291 -3.5432,0.60235 -0.98956,0.33769 -1.83615,0.93108 -2.77219,1.3866 0,0 5.84537,-4.68398 5.84537,-4.68398 l 0,0 c 0.92797,-0.49715 1.85098,-1.02103 2.89485,-1.23677 1.18813,-0.22104 2.37904,-0.4558 3.58856,-0.51725 1.48499,-0.13625 2.96288,-0.36966 4.45628,-0.38975 1.40487,-0.0717 2.80861,-0.18971 4.18111,-0.51664 1.35185,-0.27491 2.72381,-0.49054 4.10814,-0.44973 1.78158,-0.0101 3.56402,-0.0347 5.34251,-0.14875 1.84066,-0.12877 3.67725,-0.37479 5.52486,-0.34616 2.10814,0.002 4.21627,0.0101 6.32441,0.01 2.26435,9e-4 4.52871,4.8e-4 6.79307,-0.002 1.85167,-0.004 3.70421,-0.001 5.55474,-0.0746 1.75557,-0.0886 3.50631,-0.23966 5.24853,-0.47752 1.74532,-0.19343 3.51692,-0.32249 5.16136,-0.99621 1.33155,-0.49582 2.66801,-0.97893 3.9878,-1.50567 0.51941,-0.22164 0.71017,-0.29318 1.20485,-0.54091 0.18951,-0.0949 0.7445,-0.40512 0.56232,-0.29681 -10.33214,6.14227 -7.08175,4.36304 -4.9966,2.83746 0.69817,-0.73359 1.14311,-1.56146 1.18321,-2.59086 -0.0949,-0.69646 -0.21716,-1.32179 -0.90015,-1.66227 -0.62833,-0.39068 -1.20649,-0.86462 -1.90224,-1.14087 -0.82599,-0.42105 -1.71602,-0.5801 -2.62884,-0.71307 -1.24809,-0.21662 -2.52138,-0.25707 -3.75592,-0.55812 -1.19832,-0.30534 -2.38765,-0.6267 -3.64069,-0.54931 -1.4462,-0.0409 -2.89471,-0.0949 -4.3293,-0.29576 -1.29197,-0.17504 -2.58365,-0.28703 -3.88609,-0.35378 -1.51782,-0.14114 -3.03179,-0.38474 -4.56031,-0.34624 -1.88703,-0.003 -3.77408,0.005 -5.6611,-0.003 -1.70759,-0.0131 -3.41669,-0.0347 -5.1204,-0.16058 -1.90167,-0.15585 -3.80271,-0.40443 -5.71445,-0.34904 -2.03161,0.022 -4.0651,0.0477 -6.09084,0.21961 -2.29923,0.20212 -4.58248,0.52632 -6.87619,0.77834 0,0 6.01872,-4.46518 6.01872,-4.46518 z"
       inkscape:connector-curvature="0" />
    <path
       style="fill:#000000"
       id="path3333-8"
       d="m 309.80109,448.40614 c -2.33512,-0.0404 -4.67082,-0.0333 -7.00618,-0.0228 -1.6037,0.13978 -3.19836,0.35744 -4.80614,0.45041 -1.50659,0.066 -3.01484,0.0671 -4.52254,0.0726 -1.37343,-10e-4 -2.74685,0.002 -4.12027,0.004 -1.06732,-0.0804 -2.0649,0.0519 -3.08195,0.36368 -1.99018,0.36578 -3.94737,0.85447 -5.90475,1.36467 -0.8608,0.27674 -1.78551,0.31374 -2.62498,0.66417 -0.18925,0.079 -0.71747,0.3976 -0.53918,0.29627 6.1757,-3.50998 7.7974,-4.86039 5.69235,-3.1461 -0.5633,0.65649 -0.4987,1.42317 -0.35,2.21206 0.12157,0.70109 0.33889,1.45225 0.8975,1.92547 0.76374,0.77894 1.76161,1.12929 2.71941,1.60145 1.34411,0.67368 2.76344,1.17119 4.14975,1.75391 1.56337,0.57855 3.19702,0.90661 4.82841,1.22745 2.01845,0.28362 4.03182,0.60415 6.06256,0.79063 1.90995,0.15744 3.8271,0.17746 5.74231,0.1915 1.51321,0.003 3.0264,-0.007 4.53962,-0.007 1.38016,-4.1e-4 2.76031,-0.004 4.14047,-0.007 1.24774,-0.002 2.49549,0.001 3.74325,0.001 1.50857,-0.001 3.01712,0.008 4.52569,0.007 1.61745,-5.9e-4 3.2349,-3.1e-4 4.85235,-0.003 1.5556,-0.002 3.11121,8.9e-4 4.66682,0.002 1.51625,-0.0867 3.00126,0.0538 4.49875,0.26242 1.05728,0.15439 2.12484,0.1997 3.19162,0.22302 1.2702,0.0735 2.52789,0.30828 3.80021,0.41072 1.38367,0.0868 2.74525,0.36791 4.12572,0.50487 1.05607,0.093 2.11682,0.10073 3.17616,0.106 0.95832,0.004 1.91665,0.002 2.87498,0.004 0,0 -6.05889,4.40311 -6.05889,4.40311 l 0,0 c -0.96475,0.004 -1.92958,0.007 -2.89431,-3e-5 -1.07175,-0.0165 -2.14475,-0.0469 -3.21004,-0.17538 -1.36838,-0.171 -2.72645,-0.43477 -4.10655,-0.49788 -1.26476,-0.12426 -2.52138,-0.35707 -3.79497,-0.36122 -1.07947,-0.0443 -2.15662,-0.1283 -3.22476,-0.29631 -1.46773,-0.19928 -2.93622,-0.23734 -4.41726,-0.19502 -1.55766,10e-4 -3.11531,0.005 -4.67296,0.002 -1.61482,-0.003 -3.22964,-0.002 -4.84445,-0.003 -1.51526,-9.5e-4 -3.03049,0.009 -4.54574,0.007 -1.24915,2.4e-4 -2.4983,0.003 -3.74744,0.002 -1.37606,-0.003 -2.75211,-0.004 -4.12817,-6.6e-4 -1.50817,0.004 -3.01637,0.004 -4.52447,-0.014 -1.92295,-0.0233 -3.84776,-0.07 -5.76296,-0.25703 -2.04771,-0.21204 -4.08686,-0.5165 -6.11883,-0.84339 -1.67224,-0.34539 -3.3544,-0.68196 -4.94023,-1.33553 -1.38926,-0.60067 -2.82683,-1.08193 -4.17366,-1.77781 -1.04123,-0.48557 -2.0631,-0.95963 -2.88288,-1.792 -0.59655,-0.64569 -0.98649,-1.44019 -1.11877,-2.31566 -0.19923,-0.95945 -0.34662,-1.87577 0.0674,-2.8128 2.02497,-3.48974 6.64533,-4.38234 10.28057,-5.27315 1.97907,-0.51021 3.97335,-0.94239 5.96311,-1.40728 1.05885,-0.22354 2.11297,-0.25758 3.19448,-0.2116 1.36682,0.005 2.73366,0.0124 4.10048,0.005 1.50029,-0.007 3.0019,-0.0166 4.49955,-0.11468 1.5972,-0.12406 3.18782,-0.34003 4.79068,-0.37668 2.35629,0.0107 4.7129,0.0169 7.06896,-0.0228 0,0 -6.06985,4.41 -6.06985,4.41 z"
       inkscape:connector-curvature="0" />
    <path
       style="fill:#000000"
       id="path3335-6"
       d="m 401.34101,444.41321 c 2.27776,-0.2199 4.54461,-0.53452 6.82668,-0.72936 2.04045,-0.15521 4.08774,-0.17187 6.13298,-0.17706 1.93046,-0.0176 3.84946,0.2495 5.77367,0.38146 1.69361,0.10327 3.39092,0.11156 5.08705,0.12184 1.88363,0.007 3.7673,0.009 5.65094,0.003 1.54705,-0.0106 3.07908,0.26194 4.62058,0.38179 1.3199,-0.008 2.60759,0.20936 3.91058,0.37963 1.41972,0.17413 2.85119,0.20731 4.27977,0.22965 1.29745,-0.0832 2.50581,0.38438 3.74473,0.67615 1.24568,0.20582 2.49444,0.28013 3.73418,0.5192 1.01551,0.0678 1.89417,0.41461 2.77607,0.88522 0.7214,0.24744 1.24124,0.82893 1.91658,1.15708 0.80956,0.50609 1.07415,1.3631 1.2361,2.25121 0.11894,1.17466 -0.29348,2.2004 -0.93042,3.1598 -2.51726,2.71024 -6.13785,4.20947 -9.54148,5.58338 -1.33167,0.49678 -2.66997,0.97273 -3.9978,1.48329 -1.68901,0.59437 -3.49036,0.60491 -5.24564,0.8335 -1.75934,0.23868 -3.52902,0.3813 -5.30274,0.44692 -1.84843,0.0412 -3.69757,0.0316 -5.54633,0.0285 -2.25932,-0.004 -4.51865,-0.009 -6.77798,-0.01 -2.11609,-0.002 -4.23216,0.006 -6.34824,0.008 -1.83564,0.0381 -3.66252,0.2749 -5.49694,0.38586 -1.79399,0.0918 -3.59051,0.11112 -5.38644,0.12759 -1.36086,-0.006 -2.70334,0.28781 -4.02735,0.57598 -1.39601,0.30572 -2.82758,0.37124 -4.25137,0.41291 -1.4846,0.06 -2.95669,0.29899 -4.43936,0.42048 -1.18276,0.12785 -2.38583,0.31291 -3.5432,0.60235 -0.98956,0.33769 -1.83615,0.93108 -2.77219,1.3866 0,0 5.84537,-4.68398 5.84537,-4.68398 l 0,0 c 0.92797,-0.49715 1.85098,-1.02103 2.89485,-1.23677 1.18813,-0.22104 2.37904,-0.4558 3.58856,-0.51725 1.48499,-0.13625 2.96288,-0.36966 4.45628,-0.38975 1.40487,-0.0717 2.80861,-0.18971 4.18111,-0.51664 1.35185,-0.27491 2.72381,-0.49054 4.10814,-0.44973 1.78158,-0.0101 3.56402,-0.0347 5.34251,-0.14875 1.84066,-0.12877 3.67725,-0.37479 5.52486,-0.34616 2.10814,0.002 4.21627,0.0101 6.32441,0.01 2.26435,9e-4 4.52871,4.8e-4 6.79307,-0.002 1.85167,-0.004 3.70421,-10e-4 5.55474,-0.0746 1.75557,-0.0886 3.50631,-0.23966 5.24853,-0.47752 1.74532,-0.19343 3.51692,-0.32249 5.16136,-0.99621 1.33155,-0.49582 2.66801,-0.97893 3.9878,-1.50567 0.51941,-0.22164 0.71017,-0.29318 1.20485,-0.54091 0.18951,-0.0949 0.7445,-0.40512 0.56232,-0.29681 -10.33214,6.14227 -7.08175,4.36304 -4.9966,2.83746 0.69817,-0.73359 1.14311,-1.56146 1.18321,-2.59086 -0.0949,-0.69646 -0.21716,-1.32179 -0.90015,-1.66227 -0.62833,-0.39068 -1.20649,-0.86462 -1.90224,-1.14087 -0.82599,-0.42105 -1.71602,-0.5801 -2.62884,-0.71307 -1.24809,-0.21662 -2.52138,-0.25707 -3.75592,-0.55812 -1.19832,-0.30534 -2.38765,-0.6267 -3.64069,-0.54931 -1.4462,-0.0409 -2.89471,-0.0949 -4.3293,-0.29576 -1.29197,-0.17504 -2.58365,-0.28703 -3.88609,-0.35378 -1.51782,-0.14114 -3.03179,-0.38474 -4.56031,-0.34624 -1.88703,-0.003 -3.77408,0.005 -5.6611,-0.003 -1.70759,-0.0131 -3.41669,-0.0347 -5.1204,-0.16058 -1.90167,-0.15585 -3.80271,-0.40443 -5.71445,-0.34904 -2.03161,0.022 -4.0651,0.0477 -6.09084,0.21961 -2.29923,0.20212 -4.58248,0.52632 -6.87619,0.77834 0,0 6.01872,-4.46518 6.01872,-4.46518 z"
       inkscape:connector-curvature="0" />
    <path
       style="fill:#000000"
       id="path3376"
       d="m 399.5812,447.0618 c -1.88844,0.094 -3.77322,0.20993 -5.64892,0.45405 -1.63079,0.26806 -3.30666,0.42148 -4.87762,0.95697 -0.94661,0.26689 -1.80761,0.72492 -2.70799,1.10752 -0.81782,0.26972 -1.59848,0.62897 -2.40288,0.92928 0,0 4.16196,-3.26867 4.16196,-3.26867 l 0,0 c 0.79139,-0.3268 1.599,-0.61053 2.38906,-0.94063 0.89567,-0.39239 1.77965,-0.80704 2.73233,-1.05034 1.59866,-0.42375 3.25187,-0.61995 4.88668,-0.85029 1.90479,-0.216 3.81757,-0.31417 5.72438,-0.50334 0,0 -4.257,3.16545 -4.257,3.16545 z"
       inkscape:connector-curvature="0" />
    <path
       style="fill:#000000"
       id="path3378"
       d="m 313.63403,444.59486 c 3.98579,0.0837 7.97297,0.0817 11.95947,0.0826 3.57176,-0.0956 7.13131,-0.41363 10.69465,-0.65545 1.51052,-0.11688 3.02533,-0.13277 4.53944,-0.13394 1.70249,0.002 3.40497,0.006 5.10746,0.005 0,0 -4.24217,3.08151 -4.24217,3.08151 l 0,0 c -1.70474,-0.004 -3.40949,-0.007 -5.11422,0.004 -1.49601,0.0155 -2.992,0.0444 -4.4859,0.1309 -3.51705,0.19258 -7.03225,0.44002 -10.55461,0.51422 -4.0623,8.6e-4 -8.1252,5.7e-4 -12.18682,0.0826 0,0 4.2827,-3.11156 4.2827,-3.11156 z"
       inkscape:connector-curvature="0" />
    <path
       style="fill:#000000"
       id="path3380"
       d="m 345.08705,443.4727 c 3.47596,0.11684 6.95049,0.0477 10.42544,-0.0582 4.63686,-0.2763 9.27089,-0.58641 13.91274,-0.76747 3.33478,-0.0916 6.67382,-0.22548 10.00504,-2.3e-4 2.14452,0.19263 4.2874,0.40081 6.43731,0.52388 0.7897,0.0373 1.60864,-0.0121 2.32052,0.376 0.50735,0.26957 1.02321,0.53387 1.51583,0.82968 0.393,0.25013 0.83947,0.31216 1.29352,0.34561 0.49054,0.0238 0.98191,0.0181 1.47286,0.0163 0.50537,-0.002 1.01074,-0.004 1.51612,-0.004 0.4511,-0.1088 0.90208,-0.20581 1.35307,-0.3139 0.67382,-0.11988 1.35935,-0.15545 2.04223,-0.18026 0.0874,-0.0185 0.17486,-0.0365 0.2621,-0.0556 0.21827,-0.0479 0.26244,-0.0458 0.46052,-0.1488 0.0739,-0.0384 0.2856,-0.1718 0.21308,-0.13074 -3.03702,1.71977 -3.94332,2.41057 -2.7853,1.54643 0,0 3.48082,-1.39471 3.48082,-1.39471 l 0,0 c -1.33156,1.11635 -2.88493,2.25889 -4.65168,2.39769 -0.67194,0.0331 -1.34783,0.0778 -2.00278,0.24193 -0.46172,0.11287 -0.93261,0.22707 -1.4087,0.24502 -0.5054,0.001 -1.0108,0.003 -1.5162,0.004 -0.49971,-1e-4 -1.00096,0.004 -1.49857,-0.0487 -0.49113,-0.0697 -0.95925,-0.20129 -1.37865,-0.4774 -0.49519,-0.27704 -0.98505,-0.56622 -1.50042,-0.80439 -0.69301,-0.27899 -1.46071,-0.21712 -2.19145,-0.29355 -2.11822,-0.16916 -4.23057,-0.39906 -6.34709,-0.58715 -3.30853,-0.20899 -6.62407,-0.0786 -9.93588,-0.005 -4.61962,0.159 -9.23192,0.44597 -13.84603,0.7168 -3.55968,0.12231 -7.11856,0.19395 -10.68007,0.22942 0,0 3.03162,-2.20261 3.03162,-2.20261 z"
       inkscape:connector-curvature="0" />
    <path
       style="fill:#000000"
       id="path3388"
       d="m 308.01449,396.40579 c 0.19568,2.2628 0.29193,4.53145 0.36135,6.80104 0.0264,2.14314 0.27063,4.27569 0.43857,6.41075 0.0636,1.43042 0.21844,2.85361 0.48925,4.25958 0.36951,1.38798 0.47028,2.81985 0.65257,4.23793 0.18102,1.4581 0.60363,2.8679 0.8251,4.31951 0.17552,1.25119 0.20417,2.51456 0.21957,3.77568 0.006,1.52439 -0.007,3.04876 -0.014,4.57313 0.0744,1.74699 -0.1251,3.47998 -0.28695,5.21539 -0.19531,1.39339 -0.45084,2.77594 -0.59468,4.17624 -0.0516,0.53281 -0.0718,1.06767 -0.0917,1.60232 0,0 -6.69833,3.38535 -6.69833,3.38535 l 0,0 c 0.0157,-0.55029 0.0315,-1.10079 0.0781,-1.64958 0.13028,-1.40714 0.37241,-2.79654 0.62105,-4.18701 0.16507,-1.71641 0.41342,-3.4287 0.32765,-5.15803 -0.003,-1.51662 -0.006,-3.03326 -0.0128,-4.54986 -0.0101,-1.23117 -0.0251,-2.46524 -0.16741,-3.68971 -0.20049,-1.45803 -0.60351,-2.8723 -0.81778,-4.32706 -0.21315,-1.3981 -0.25781,-2.82337 -0.63609,-4.19538 -0.30527,-1.43284 -0.48077,-2.89257 -0.51185,-4.35768 -0.13301,-2.15335 -0.38581,-4.30038 -0.41382,-6.45843 -0.0584,-2.23828 -0.13191,-4.48111 -0.41433,-6.70445 0,0 6.6465,-3.47973 6.6465,-3.47973 z"
       inkscape:connector-curvature="0" />
    <path
       style="fill:#000000"
       id="path3390"
       d="m 318.07485,394.92734 c -0.11141,2.05546 0.11349,4.10398 0.26009,6.15133 0.18017,2.15761 0.11777,4.32546 0.25748,6.48415 0.22216,1.95003 0.28282,3.91297 0.45576,5.86643 0.33136,1.89766 0.68375,3.7849 0.86344,5.70426 0.25208,1.94946 0.43585,3.90559 0.69652,5.85382 0.27078,1.75629 0.38131,3.52851 0.44684,5.30227 0.13353,1.37814 0.28865,2.75549 0.5715,4.11161 0.32928,1.4054 0.38811,2.8522 0.4383,4.28893 0.0687,1.46402 -0.0204,2.93511 0.0949,4.39631 0.16201,1.07017 0.3141,2.13958 0.39532,3.21923 0.0222,0.13422 0.0444,0.26843 0.0667,0.40265 0,0 -6.63089,3.53666 -6.63089,3.53666 l 0,0 c -0.0339,-0.16199 -0.0679,-0.32398 -0.10184,-0.48598 -0.0641,-1.07578 -0.19286,-2.14359 -0.37172,-3.20654 -0.16768,-1.475 -0.009,-2.96771 -0.0957,-4.44927 -0.0449,-1.39436 -0.0909,-2.7981 -0.39727,-4.1649 -0.29287,-1.40016 -0.4607,-2.81618 -0.60941,-4.23896 -0.0458,-1.7539 -0.14201,-3.50733 -0.3899,-5.24595 -0.26524,-1.95733 -0.45273,-3.92158 -0.72072,-5.87877 -0.16298,-1.91981 -0.48126,-3.81346 -0.85479,-5.70319 -0.2022,-1.95782 -0.22646,-3.93134 -0.45957,-5.88775 -0.15368,-2.15814 -0.0817,-4.32686 -0.25163,-6.48549 -0.14075,-2.054 -0.36749,-4.10343 -0.34839,-6.16467 0,0 6.685,-3.40618 6.685,-3.40618 z"
       inkscape:connector-curvature="0" />
    <path
       style="fill:#000000"
       id="path3392"
       d="m 396.35804,394.48453 c -0.0462,2.09399 -0.0288,4.18868 -0.0263,6.283 0.002,2.02833 0.002,4.05666 0.002,6.08499 -0.002,1.93599 0.009,3.87193 8.1e-4,5.80791 0.005,1.82369 0.003,3.6474 0.009,5.47109 0.0234,1.85438 0.008,3.70282 -0.13807,5.55181 -0.17821,1.84416 -0.28068,3.69385 -0.33034,5.54557 -0.15829,1.78301 -0.35545,3.55947 -0.44915,5.34791 -0.0671,1.47352 -0.0807,2.94856 -0.0821,4.42336 0.0373,1.05675 -0.0597,2.12243 0.0489,3.17533 0,0 -6.64918,3.50104 -6.64918,3.50104 l 0,0 c -0.17385,-1.08129 -0.0374,-2.18728 -0.0745,-3.27891 0.0108,-1.4911 0.0222,-2.98275 0.0995,-4.47222 0.0919,-1.78151 0.21968,-3.55896 0.45043,-5.32853 0.0544,-1.86657 0.13976,-3.73198 0.32684,-5.59077 0.16487,-1.82766 0.18017,-3.65257 0.14956,-5.48727 0.006,-1.82661 0.004,-3.65324 0.009,-5.47985 -0.008,-1.93626 0.003,-3.87247 8.1e-4,-5.80874 7e-5,-2.02902 9e-5,-4.05804 0.002,-6.08706 0.002,-2.08538 0.0201,-4.17115 -0.0263,-6.25619 0,0 6.67773,-3.40247 6.67773,-3.40247 z"
       inkscape:connector-curvature="0" />
    <path
       style="fill:#000000"
       id="path3394"
       d="m 409.45168,391.429 c -0.30014,2.37455 -0.381,4.77002 -0.44552,7.16042 -0.04,2.00255 -0.0452,4.00552 -0.0392,6.00837 4.2e-4,1.88706 -0.008,3.77408 -0.009,5.66114 -0.009,2.09176 0.002,4.1835 0.003,6.27526 0.0228,1.94007 0.0266,3.87629 -0.1312,5.8107 -0.18873,2.02356 -0.24355,4.05413 -0.46357,6.07463 -0.17065,1.40052 -0.29235,2.80565 -0.35399,4.21505 -0.0402,1.13149 -0.042,2.26377 -0.0409,3.39582 0.0148,0.15364 0.0297,0.30728 0.0445,0.46091 0,0 -6.64783,3.48888 -6.64783,3.48888 l 0,0 c -0.0258,-0.18185 -0.0516,-0.3637 -0.0775,-0.54555 5.4e-4,-1.14139 -0.0101,-2.28319 0.0259,-3.42415 0.0592,-1.43371 0.18533,-2.86264 0.3757,-4.28518 0.23969,-2.01467 0.32132,-4.03537 0.48126,-6.05774 0.16082,-1.91753 0.18573,-3.82997 0.15637,-5.75457 9.6e-4,-2.09247 0.0119,-4.18493 10e-4,-6.27738 -0.002,-1.88385 -0.0146,-3.76765 -0.0133,-5.65149 0.012,-2.0172 0.0211,-4.03469 0.0812,-6.05118 0.066,-2.39274 0.15999,-4.78424 0.33015,-7.17215 0,0 6.72188,-3.33179 6.72188,-3.33179 z"
       inkscape:connector-curvature="0" />
    <path
       style="fill:#000000"
       id="path3396"
       d="m 409.53482,436.30682 c 0.14831,1.6766 0.29355,3.35314 0.38793,5.03376 -0.0134,0.56279 0.0815,1.11327 0.18314,1.66334 0,0 -6.62509,3.5328 -6.62509,3.5328 l 0,0 c -0.11246,-0.58461 -0.2382,-1.16898 -0.20473,-1.76939 -0.0656,-1.66427 -0.16694,-3.32894 -0.38775,-4.98078 0,0 6.6465,-3.47973 6.6465,-3.47973 z"
       inkscape:connector-curvature="0" />
    <path
       style="fill:#000000"
       id="path3398"
       d="m 409.40846,440.96316 c -0.40333,1.63279 -0.64492,3.29865 -0.80643,4.97092 -0.11307,1.26095 -0.12,2.5273 -0.13124,3.79217 -0.009,1.44683 -0.001,2.89366 -0.002,4.34049 0.002,0.89096 0.006,1.78191 0.01,2.67286 0,0 -6.67663,3.40227 -6.67663,3.40227 l 0,0 c 0.003,-0.89348 0.007,-1.78696 0.006,-2.68045 -0.004,-1.44611 -0.004,-2.89222 -0.0108,-4.33833 -0.002,-1.28643 4.6e-4,-2.57512 0.10948,-3.85788 0.16038,-1.69354 0.41675,-3.37432 0.74491,-5.04363 0,0 6.75627,-3.25842 6.75627,-3.25842 z"
       inkscape:connector-curvature="0" />
    <path
       style="fill:#000000"
       id="path3400"
       d="m 392.36054,438.89814 c 0.15915,2.12359 0.26184,4.24777 0.50291,6.36404 0.21534,1.75899 0.35382,3.52559 0.41922,5.29622 0.0479,1.34229 0.045,2.68545 0.0478,4.02835 0.11674,0.92525 0.22086,1.86774 0.43785,2.77622 0.0574,0.0717 0.11473,0.1434 0.1721,0.21511 0,0 -6.47676,3.82256 -6.47676,3.82256 l 0,0 c -0.10173,-0.15143 -0.20346,-0.30285 -0.30519,-0.45428 -0.26824,-0.96083 -0.32657,-1.97808 -0.50222,-2.95924 0.004,-1.33815 0.004,-2.67649 -0.0202,-4.01446 -0.051,-1.75773 -0.14582,-3.51419 -0.35832,-5.26087 -0.23764,-2.11216 -0.32537,-4.2327 -0.56038,-6.34497 0,0 6.64312,-3.46868 6.64312,-3.46868 z"
       inkscape:connector-curvature="0" />
    <path
       style="fill:#000000"
       id="path3402"
       d="m 435.25255,392.90703 c -0.0504,2.18029 -0.0382,4.36155 -0.0358,6.54228 0.0809,2.092 -0.1136,4.17368 -0.27914,6.25598 -0.15648,1.69684 -0.12953,3.40282 -0.24873,5.10105 -0.17141,1.54512 -0.31885,3.09167 -0.39514,4.64455 -0.0615,1.47865 -0.0659,2.959 -0.0665,4.4387 -0.102,1.45803 -0.29384,2.90693 -0.39587,4.36564 -0.0755,1.20039 -0.0927,2.40335 -0.0989,3.60576 -0.0111,1.50441 -0.0114,3.00887 -0.0156,4.51332 0.002,1.41492 0.0119,2.82981 0.0177,4.24472 -0.0659,1.06583 -0.2818,2.11345 -0.39271,3.17514 -0.0812,0.90778 -0.10375,1.82003 -0.1005,2.73107 0,0 -6.7014,3.40353 -6.7014,3.40353 l 0,0 c 0.0272,-0.92969 0.0277,-1.86025 0.0808,-2.78912 0.0882,-1.04752 0.25422,-2.08183 0.4342,-3.11706 0.005,-1.4203 0.015,-2.84059 0.0148,-4.2609 -0.006,-1.5005 -0.0115,-3.001 -0.0167,-4.5015 0.006,-1.2182 0.004,-2.43726 0.0862,-3.65341 0.0996,-1.44546 0.24595,-2.88639 0.4261,-4.32403 0.004,-1.48949 -3.4e-4,-2.97931 0.0489,-4.4682 0.0712,-1.56368 0.19891,-3.12312 0.39936,-4.67602 0.16223,-1.69649 0.0854,-3.40749 0.26038,-5.10485 0.16715,-2.06904 0.41636,-4.13439 0.32933,-6.2147 0.002,-2.16856 0.0149,-4.33767 -0.0358,-6.50577 0,0 6.685,-3.40618 6.685,-3.40618 z"
       inkscape:connector-curvature="0" />
    <path
       style="fill:#000000"
       id="path3404"
       d="m 423.59381,392.94423 c -0.2768,2.04695 -0.36409,4.11319 -0.42846,6.17583 -0.0511,1.74923 -0.0559,3.49934 -0.0506,5.24916 0.0224,1.19168 0.31882,2.33582 0.61405,3.48052 0.29469,1.11734 0.58616,2.22196 0.73559,3.3702 0.16276,1.55186 0.15787,3.11568 0.16683,4.67432 -0.0251,1.61111 0.0594,3.22568 -0.0375,4.83462 -0.17584,1.32566 -0.32072,2.65225 -0.39431,3.98767 -0.061,1.30545 -0.0662,2.61262 -0.0692,3.91923 0.0632,1.28387 -0.0878,2.55436 -0.32461,3.81348 -0.28065,1.07844 -0.48751,2.16854 -0.59562,3.27725 -0.0451,1.03122 -0.28927,2.03718 -0.42844,3.05725 0.003,0.80771 0.0992,1.63584 0.28129,2.42409 0.13824,0.4734 0.0513,0.25803 0.24744,0.65135 0,0 -6.53894,3.72491 -6.53894,3.72491 l 0,0 c -0.26178,-0.51814 -0.15608,-0.25325 -0.32091,-0.79315 -0.24392,-0.86718 -0.29805,-1.78868 -0.39967,-2.68157 0.11399,-1.01854 0.36361,-2.01417 0.44272,-3.03276 0.0851,-1.13992 0.2467,-2.27066 0.56616,-3.37132 0.30262,-1.19728 0.43595,-2.43802 0.40012,-3.67232 0.002,-1.31762 -0.003,-2.63594 0.0515,-3.95271 0.0671,-1.3432 0.16079,-2.68593 0.38644,-4.01348 0.18773,-1.58356 0.0414,-3.18899 0.0859,-4.78049 -0.009,-1.5287 -0.007,-3.0607 -0.14837,-4.58432 -0.13353,-1.1215 -0.4141,-2.19387 -0.70522,-3.28152 -0.29915,-1.20834 -0.63263,-2.40422 -0.67499,-3.65932 0.011,-1.7622 0.0172,-3.52467 0.0697,-5.28625 0.0778,-2.06809 0.17358,-4.13631 0.34721,-6.19888 0,0 6.72187,-3.33179 6.72187,-3.33179 z"
       inkscape:connector-curvature="0" />
    <path
       style="fill:#000000"
       id="path3406"
       d="m 362.05765,398.93117 c 0.1648,1.82011 0.30922,3.64183 0.3779,5.46826 0.0624,2.08449 0.0566,4.17019 0.0523,6.25537 -0.003,2.51374 -0.0112,5.02746 -0.01,7.54121 0.005,1.97146 0.017,3.9429 0.0297,5.91433 0.005,1.49475 -0.002,2.98947 0.002,4.48422 -0.0845,1.3257 0.1127,2.62989 0.29059,3.93774 0.16452,1.15099 0.19487,2.31332 0.2098,3.47393 0.0133,1.2242 0.0163,2.44847 0.018,3.67273 0.0736,0.93646 -0.0755,1.84327 -0.25261,2.75666 10e-4,0.0684 0.003,0.13673 0.004,0.2051 0,0 -6.92383,3.0376 -6.92383,3.0376 l 0,0 c 0.0426,0.005 0.0852,0.0102 0.12775,0.0153 0.25437,-0.85138 0.42157,-1.71782 0.36074,-2.60984 0.004,-1.22258 0.0118,-2.44522 -8.1e-4,-3.66778 -0.0202,-1.1327 -0.0406,-2.26758 -0.17849,-3.39353 -0.16769,-1.3409 -0.40627,-2.67511 -0.31791,-4.03306 0.005,-1.49561 -0.003,-2.99121 0.003,-4.48682 0.013,-1.98197 0.0259,-3.96396 0.0319,-5.94596 0.003,-2.51085 -9.8e-4,-5.02168 -0.005,-7.53253 -0.009,-2.07234 -0.01,-4.1451 -0.068,-6.21679 -0.0679,-1.80265 -0.15398,-3.60738 -0.39778,-5.39643 0,0 6.6465,-3.47973 6.6465,-3.47973 z"
       inkscape:connector-curvature="0" />
    <path
       style="fill:#000000"
       id="path3408"
       d="m 374.68456,396.40579 c 0.17872,2.14532 0.26238,4.29415 0.49913,6.43438 0.25412,2.00813 0.52571,4.01583 0.81399,6.01974 0.34097,2.00212 0.49171,4.02609 0.57824,6.05278 0.044,1.87878 0.28622,3.74539 0.4273,5.61859 0.10338,1.52822 0.13946,3.05925 0.15597,4.59044 0.011,1.16641 0.0122,2.33288 0.0127,3.49933 8e-5,1.01757 -3.7e-4,2.03513 -5.8e-4,3.05269 -2e-4,1.00817 -2.3e-4,2.01635 -2.5e-4,3.02452 0.0522,1.04044 -0.0302,2.06115 -0.20124,3.08589 -0.20632,0.97504 -0.0285,1.96638 0.0632,2.94424 0,0 -6.65831,3.46877 -6.65831,3.46877 l 0,0 c -0.0904,-1.03316 -0.30472,-2.08452 -0.14952,-3.11677 0.16785,-0.99103 0.34613,-1.96084 0.25617,-2.97355 -3e-5,-1.00821 -10e-5,-2.01642 6e-5,-3.02464 2.7e-4,-1.0183 6.7e-4,-2.0366 0.003,-3.05491 0.003,-1.16771 0.01,-2.33542 0.009,-3.50315 -0.007,-1.52101 -0.0217,-3.04284 -0.11034,-4.56168 -0.1212,-1.88415 -0.37826,-3.75796 -0.42328,-5.64563 -0.0744,-2.00219 -0.20308,-4.0039 -0.54174,-5.9816 -0.30793,-2.01118 -0.55204,-4.03524 -0.81641,-6.05193 -0.22475,-2.13088 -0.31354,-4.26992 -0.56417,-6.39778 0,0 6.6465,-3.47973 6.6465,-3.47973 z"
       inkscape:connector-curvature="0" />
  </g>
</svg>
